<?xml version="1.0" encoding="UTF-8"?><svg id="Layer_1" xmlns="http://www.w3.org/2000/svg" viewBox="0 0 737.67 593"><defs><style>.cls-1{fill:#f2f2f2;}.cls-2{fill:#ffb8b8;}.cls-3{fill:#96bde0;}.cls-4{fill:#55a0e6;}.cls-5{fill:#2f2e41;}.cls-6{fill:#7492ad;}</style></defs><path class="cls-3" d="m268.43,450.57c-4.61-11.06-.48-23.83,9.74-30.09,1.65-1,.14-3.6-1.51-2.59-11.74,7.01-16.39,21.7-10.82,34.19.76,1.77,3.34.24,2.59-1.51h0Z"/><path class="cls-3" d="m269.28,454.61c-4.05-7.17-3.09-15.75-1.64-23.5,1.52-8.09,3.51-16.31,1.79-24.54-.78-4-2.63-7.71-5.35-10.73-1.31-1.42-3.43.7-2.12,2.12,5.09,5.53,5.68,13.54,4.85,20.67-.97,8.4-3.73,16.58-3.39,25.12.09,4.33,1.21,8.57,3.27,12.38.44.7,1.37.91,2.07.47.67-.42.89-1.29.52-1.98h0Z"/><path class="cls-6" d="m291,477.5h-51c-2.48,0-4.5-2.02-4.5-4.5v-14.98c0-8.02,6.5-14.51,14.52-14.52h7.48c.83,0,1.5-.67,1.5-1.5v-7c0-1.38,1.12-2.5,2.5-2.5h8c1.38,0,2.5,1.12,2.5,2.5v7c0,.83.67,1.5,1.5,1.5h7.48c8.02,0,14.51,6.5,14.52,14.52v14.98c0,2.48-2.02,4.5-4.5,4.5Z"/><path class="cls-4" d="m266.28,387.54c1.07,5.7-.26,10.73-2.97,11.24s-5.78-3.69-6.86-9.39,2.23-15.18,2.23-15.18c0,0,6.52,7.62,7.6,13.32Z"/><path class="cls-4" d="m286.88,414.05c-3.4,4.7-7.97,7.19-10.21,5.57s-1.29-6.74,2.11-11.44,12.55-8.81,12.55-8.81c0,0-1.05,9.98-4.45,14.68Z"/><path class="cls-3" d="m174.43,90.57c-4.61-11.06-.48-23.83,9.74-30.09,1.65-1,.14-3.6-1.51-2.59-11.74,7.01-16.39,21.7-10.82,34.19.76,1.77,3.34.24,2.59-1.51h0Z"/><path class="cls-3" d="m175.28,94.61c-4.05-7.17-3.09-15.75-1.64-23.5,1.52-8.09,3.51-16.31,1.79-24.54-.78-4-2.63-7.71-5.35-10.73-1.31-1.42-3.43.7-2.12,2.12,5.09,5.53,5.68,13.54,4.85,20.67-.97,8.4-3.73,16.58-3.39,25.12.09,4.33,1.21,8.57,3.27,12.38.44.7,1.37.91,2.07.47.67-.42.89-1.29.52-1.98h0Z"/><path class="cls-6" d="m197,117.5h-51c-2.48,0-4.5-2.02-4.5-4.5v-14.98c0-8.02,6.5-14.51,14.52-14.52h7.48c.83,0,1.5-.67,1.5-1.5v-7c0-1.38,1.12-2.5,2.5-2.5h8c1.38,0,2.5,1.12,2.5,2.5v7c0,.83.67,1.5,1.5,1.5h7.48c8.02,0,14.51,6.5,14.52,14.52v14.98c0,2.48-2.02,4.5-4.5,4.5Z"/><path class="cls-4" d="m172.28,27.54c1.07,5.7-.26,10.73-2.97,11.24s-5.78-3.69-6.86-9.39,2.23-15.18,2.23-15.18c0,0,6.52,7.62,7.6,13.32Z"/><path class="cls-4" d="m192.88,54.05c-3.4,4.7-7.97,7.19-10.21,5.57s-1.29-6.74,2.11-11.44,12.55-8.81,12.55-8.81c0,0-1.05,9.98-4.45,14.68Z"/><rect class="cls-4" x="32" y="272" width="41" height="15"/><rect class="cls-4" x="32" y="321" width="41" height="15"/><path class="cls-3" d="m323,593H17c-9.38-.01-16.99-7.62-17-17V17C.01,7.62,7.62.01,17,0h306c9.38.01,16.99,7.62,17,17v559c-.01,9.38-7.62,16.99-17,17ZM17,2c-8.28,0-14.99,6.72-15,15v559c0,8.28,6.72,14.99,15,15h306c8.28,0,14.99-6.72,15-15V17c0-8.28-6.72-14.99-15-15H17Z"/><rect class="cls-3" x="1" y="115.45" width="338" height="2"/><rect class="cls-3" x="1" y="235.48" width="338" height="2"/><rect class="cls-3" x="1" y="355.52" width="338" height="2"/><rect class="cls-3" x="1" y="475.55" width="338" height="2"/><path class="cls-3" d="m70,358h-34c-2.76,0-5-2.24-5-5v-97c0-2.76,2.24-5,5-5h34c2.76,0,5,2.24,5,5v97c0,2.76-2.24,5-5,5Zm-34-105c-1.66,0-3,1.34-3,3v97c0,1.66,1.34,3,3,3h34c1.66,0,3-1.34,3-3v-97c0-1.66-1.34-3-3-3h-34Z"/><rect class="cls-4" x="95" y="272" width="41" height="15"/><rect class="cls-4" x="95" y="321" width="41" height="15"/><path class="cls-3" d="m133,358h-34c-2.76,0-5-2.24-5-5v-97c0-2.76,2.24-5,5-5h34c2.76,0,5,2.24,5,5v97c0,2.76-2.24,5-5,5Zm-34-105c-1.66,0-3,1.34-3,3v97c0,1.66,1.34,3,3,3h34c1.66,0,3-1.34,3-3v-97c0-1.66-1.34-3-3-3h-34Z"/><rect class="cls-4" x="195" y="151" width="41" height="15"/><rect class="cls-4" x="195" y="200" width="41" height="15"/><path class="cls-3" d="m233,237h-34c-2.76,0-5-2.24-5-5v-97c0-2.76,2.24-5,5-5h34c2.76,0,5,2.24,5,5v97c0,2.76-2.24,5-5,5Zm-34-105c-1.66,0-3,1.34-3,3v97c0,1.66,1.34,3,3,3h34c1.66,0,3-1.34,3-3v-97c0-1.66-1.34-3-3-3h-34Z"/><rect class="cls-4" x="258" y="151" width="41" height="15"/><rect class="cls-4" x="258" y="200" width="41" height="15"/><path class="cls-3" d="m296,237h-34c-2.76,0-5-2.24-5-5v-97c0-2.76,2.24-5,5-5h34c2.76,0,5,2.24,5,5v97c0,2.76-2.24,5-5,5Zm-34-105c-1.66,0-3,1.34-3,3v97c0,1.66,1.34,3,3,3h34c1.66,0,3-1.34,3-3v-97c0-1.66-1.34-3-3-3h-34Z"/><rect class="cls-4" x="149.24" y="269.77" width="41" height="15" transform="translate(-86.68 77.43) rotate(-20.59)"/><rect class="cls-4" x="166.47" y="315.64" width="41" height="15" transform="translate(-101.72 86.42) rotate(-20.59)"/><path class="cls-3" d="m180.14,356.88c-2.08,0-3.94-1.3-4.68-3.24l-34.12-90.8c-.97-2.58.34-5.46,2.92-6.44l31.83-11.96c2.58-.97,5.47.34,6.44,2.92h0s34.12,90.8,34.12,90.8c.97,2.58-.34,5.46-2.92,6.44h0l-31.83,11.96c-.56.21-1.16.32-1.76.32Zm-2.29-110.76c-.36,0-.72.07-1.06.19l-31.83,11.96c-1.55.58-2.33,2.31-1.75,3.86l34.12,90.8c.58,1.55,2.31,2.34,3.86,1.75,0,0,0,0,0,0l31.83-11.96c1.55-.58,2.33-2.31,1.75-3.86l-34.12-90.8c-.44-1.17-1.56-1.94-2.81-1.95Z"/><rect class="cls-4" x="11.24" y="150.77" width="41" height="15" transform="translate(-53.65 21.28) rotate(-20.59)"/><rect class="cls-4" x="28.47" y="196.64" width="41" height="15" transform="translate(-68.68 30.27) rotate(-20.59)"/><path class="cls-3" d="m42.14,237.88c-2.08,0-3.94-1.3-4.68-3.24L3.35,143.84c-.97-2.58.34-5.46,2.92-6.44l31.83-11.96c2.58-.97,5.47.34,6.44,2.92h0s34.12,90.8,34.12,90.8c.97,2.58-.34,5.46-2.92,6.44h0l-31.83,11.96c-.56.21-1.16.32-1.76.32Zm-2.29-110.76c-.36,0-.72.07-1.06.19l-31.83,11.96c-1.55.58-2.33,2.31-1.75,3.86l34.12,90.8c.58,1.55,2.31,2.34,3.86,1.75,0,0,0,0,0,0l31.83-11.96c1.55-.58,2.33-2.31,1.75-3.86l-34.12-90.8c-.44-1.17-1.56-1.94-2.81-1.95Z"/><circle class="cls-5" cx="627" cy="219" r="31"/><path class="cls-2" d="m489.28,360.47c5.53,2.14,11.75-.6,13.9-6.14.23-.59.4-1.2.53-1.82l85.24-53.78-15.51-17.47-78.94,58.39c-5.92-.75-11.33,3.43-12.08,9.35-.63,4.95,2.21,9.69,6.88,11.46h0Z"/><path class="cls-5" d="m571.15,313.03c-1.53,0-2.96-.77-3.79-2.06l-9.87-15.34c-1.29-2.01-.79-4.68,1.15-6.08l33.03-23.87c6.62-4.78,15.86-3.3,20.65,3.32,4.78,6.62,3.3,15.86-3.32,20.65-.23.16-.46.32-.7.47l-34.73,22.21c-.72.46-1.56.71-2.41.71Z"/><polygon class="cls-2" points="585.89 580.85 573.64 580.85 567.8 533.56 585.9 533.56 585.89 580.85"/><path class="cls-5" d="m564.88,577.35h23.64v14.89h-38.53c0-8.22,6.67-14.89,14.89-14.89Z"/><polygon class="cls-2" points="643.13 571.68 631.32 575 612.93 531.05 630.35 526.16 643.13 571.68"/><path class="cls-5" d="m621.95,573.99l22.76-6.39h0l4.02,14.33h0l-37.1,10.41h0c-2.22-7.92,2.39-16.13,10.31-18.36Z"/><path class="cls-4" d="m676.16,499.11l-47.6-56.17,28.88-35.04c1.58-1.92,4.42-2.19,6.33-.61.23.19.44.4.63.63l43.7,53.63-31.95,37.56Z"/><path class="cls-1" d="m630.48,443.36h0c.7-1.26,1.57-2.42,2.59-3.45l27.57-27.95c1.08-1.1,2.54-1.75,4.08-1.83,3.15-.15,8.32.17,9.76,3.63l-37.22,30.45-6.77-.85Z"/><path class="cls-4" d="m677.81,511c-2.12-.06-4.19-.72-5.96-1.89l-.13-.14-43.59-66.67,7.23-.7,38.77-30.24c1.96-1.53,4.79-1.18,6.32.78.07.09.14.19.21.29l42.38,64.14c1.35,2.06.8,4.83-1.24,6.21l-41.01,27.65c-.95.38-1.96.57-2.97.56Z"/><path class="cls-3" d="m662.4,465.39c-.83,0-1.61-.41-2.08-1.1l-5.01-7.44c-.77-1.15-.47-2.7.68-3.47l25.69-17.3c1.15-.77,2.7-.47,3.47.68l5.01,7.44c.77,1.15.47,2.7-.68,3.47l-25.69,17.3c-.41.28-.9.43-1.39.42Z"/><path class="cls-5" d="m565.86,573.7c-2.83-.01-5.19-2.18-5.44-5-2.18-24.79-13.13-149.7-14.33-174.93-1.33-28.03,21.99-72.37,22.23-72.82l.16-.3,11.53,1.44v1.34l10.97,1.29,21.24,2.06,6.08,74.32,2.69,50.4,25.26,102.94c.6,2.37-.82,4.78-3.19,5.41l-21.98,6c-2.38.64-4.83-.74-5.51-3.11l-20.7-72.71c-.23-.8-1.06-1.26-1.85-1.03-.66.19-1.11.8-1.09,1.49l2.19,70.9c.02,1.47-.56,2.89-1.62,3.91-5.04,4.73-18.35,7.26-25.84,8.34-.27.04-.53.06-.8.06Z"/><path class="cls-4" d="m631.92,261.39c-3.49-3.64-26.47,1.36-31.58,6.72l-34.94,57.11,57.78,10.75,12.76-72.56-4.03-2.02Z"/><path class="cls-5" d="m616.77,406.48c-1.24,0-2.48-.21-3.66-.61-3.36-1.15-7.47-2.36-12.23-3.58-20.83-5.36-28.19-22.51-21.86-50.98l.16-.72c5.94-27.01,17.14-52.58,32.96-75.26l2.45-3.52c6.05-8.68,16.69-12.91,27.04-10.76,9.37,1.93,14.41,4.74,14.96,8.33,1.08,7.05-19.85,92.27-28.91,128.58-1.25,5.01-5.75,8.53-10.92,8.52h0Z"/><path class="cls-5" d="m545,395.54c-.54,0-1.09-.08-1.61-.25l-6.75-2.16c-2.77-.89-4.3-3.85-3.41-6.62.05-.15.11-.31.17-.46l35.83-84.1c6.87-16.04,18.87-29.35,34.12-37.83h0c.45-.25.98-.3,1.46-.14.45.14.81.47,1,.89,4.21,9.27-18.72,53.14-37.15,88.4-9.44,18.05-17.59,33.64-18.52,38.09-.51,2.44-2.66,4.19-5.16,4.19Z"/><path class="cls-2" d="m655.86,414.7c4.75-3.55,5.73-10.28,2.18-15.03-.38-.51-.8-.98-1.26-1.41l-.28-100.78-23.04,3.87,7.54,97.9c-3.78,4.61-3.11,11.42,1.5,15.2,3.86,3.17,9.38,3.27,13.37.26Z"/><path class="cls-5" d="m637.1,322.48c-2.37,0-4.33-1.84-4.49-4.2l-2.68-40.67c-.53-8.15,5.64-15.18,13.78-15.73,8.15-.54,15.19,5.64,15.73,13.79.02.28.03.56.03.84l.36,41.22c.02,2.48-1.97,4.51-4.45,4.54l-18.24.21h-.05Z"/><circle class="cls-2" cx="620.61" cy="227.02" r="24.56"/><path class="cls-5" d="m641.04,244.2c1.83-5.83,3.51-12.7-.11-17.62-2.61-3.54-7.3-4.92-11.7-5.11s-8.81.55-13.2.2-9.03-2.08-11.26-5.88c-2.89-4.92-.44-11.7,4.21-15.02s10.79-3.78,16.45-3.01c7.16.85,13.89,3.86,19.29,8.63,5.26,4.85,8.69,11.85,8.53,19s-4.16,14.28-10.56,17.49"/><path class="cls-5" d="m634.91,190.53c-5.88-1.81-8.59-9.58-5.96-15.15s9.35-8.47,15.45-7.7,11.48,4.69,15.19,9.6,5.95,10.76,7.81,16.62,3.42,11.85,5.96,17.45c8.23,17.51,25.17,29.31,44.45,30.94,4.13.3,8.41.08,12.18-1.64s6.92-5.21,7.34-9.32c2.14,14.63-6.37,30.18-19.85,36.26s-30.76,2.17-40.31-9.12c-9.33-11.03-10.78-26.61-10.55-41.05.06-3.96.21-8-.89-11.81s-3.68-7.43-7.46-8.64c-3.04-.98-6.34-.27-9.46.42s-6.43,1.36-9.46.31-5.45-4.48-4.24-7.43"/></svg>