<?xml version="1.0" encoding="utf-8"?>
<!-- Generator: Adobe Illustrator 27.5.0, SVG Export Plug-In . SVG Version: 6.00 Build 0)  -->
<svg version="1.1" id="Layer_1" xmlns="http://www.w3.org/2000/svg" xmlns:xlink="http://www.w3.org/1999/xlink" x="0px" y="0px"
	 viewBox="0 0 774.1 669.9" style="enable-background:new 0 0 774.1 669.9;" xml:space="preserve">
<style type="text/css">
	.st0{fill:#9EBCDD;}
	.st1{fill:#CCDEE9;}
	.st2{fill:#CACACA;}
	.st3{fill:#2F2E41;}
	.st4{fill:#3F3D56;}
	.st5{fill:#FFFFFF;}
	.st6{fill:#689EE0;}
	.st7{fill:#E6E6E6;}
	.st8{fill:#FFB6B6;}
	.st9{fill:#A0616A;}
</style>
<path class="st0" d="M611.3,55.3c-0.9-0.6-1.8-1.1-2.6-1.7c-25.1-16.1-52.1-29.2-80.3-38.9l-6.5,90.2h-41.5V1.5
	c-2.6-0.5-5.2-1.1-7.9-1.5v104.9h-49.3C366.8,104.9,321,59.1,321,2.7v0c-2.6,0.6-5.3,1.2-7.9,1.8v100.4H273l-6.2-86
	c-29,11.1-56.5,25.7-81.9,43.5c-0.4,0.3-0.9,0.6-1.3,0.9c-2.2,1.6-4.4,3.1-6.6,4.7v344.2h118.3l-2.1-29l-11.5-159h231.6l-11.5,159
	l-2.1,29h117V58.8C614.8,57.6,613.1,56.5,611.3,55.3z M313.1,198.1h-33.4l-6.2-85.3h39.6V198.1z M472.5,198.1h-56.1v-1.7
	c0-3.4-2.8-6.2-6.2-6.2c0,0,0,0,0,0h-24.4c-3.4,0-6.2,2.8-6.2,6.2c0,0,0,0,0,0v1.7H321v-85.3h151.5L472.5,198.1z M480.4,198.1v-85.3
	h40.9l-6.2,85.3H480.4z"/>
<path class="st1" d="M719.8,665.1c0,0.5-0.2,1-0.6,1.4c-0.4,0.4-0.9,0.6-1.4,0.6h-8c-1.1,0-2-0.9-2-2c0,0,0,0,0,0V422
	c0-5.4-1.8-9.7-4-9.7H101.2c-2.2,0-4,4.4-4,9.7v241.6c0,1-0.8,1.9-1.8,2c-1.6,0.2-3.2,0.3-4.9,0.4c0,0-0.1,0-0.1,0
	c-0.9,0.1-1.8,0.1-2.6,0.2h0c-0.5-0.8-0.9-1.7-1.4-2.5c-0.1-0.3-0.2-0.6-0.2-0.9V409.4c0-1.5,0.1-3,0.2-4.4c0.1-2,0.4-4,0.8-6
	c1.7-9.3,5.5-15.6,9.9-15.6h611c0.6,0,1.3,0.1,1.8,0.4c0.9,0.4,1.6,0.9,2.3,1.6c0.9,0.9,1.6,1.9,2.2,3c2.1,3.8,3.7,9.4,4.2,15.9
	c0,0.1,0,0.1,0,0.2c0.1,1.6,0.2,3.3,0.2,4.9l0.1,21.4l0.1,12.8l0.3,40.1l0.1,14.2L719.8,665.1z"/>
<path class="st2" d="M772.9,669.6l-275.8,0.3c-0.7,0-1.2-0.5-1.2-1.2c0-0.7,0.5-1.2,1.2-1.2l275.8-0.3c0.7,0,1.2,0.5,1.2,1.2
	C774.1,669.1,773.6,669.6,772.9,669.6z"/>
<path class="st3" d="M430.7,312.3h-48.8c-1.4,0-2.6,1.2-2.6,2.6V392h54v-77.1C433.3,313.4,432.1,312.3,430.7,312.3
	C430.7,312.3,430.7,312.3,430.7,312.3z M406.4,356.1c-3.2,0-5.8-2.6-5.8-5.8v-8.9c0-3.2,2.6-5.8,5.8-5.8c3.2,0,5.8,2.6,5.8,5.8v8.9
	C412.2,353.5,409.6,356.1,406.4,356.1L406.4,356.1z"/>
<path class="st4" d="M511.5,191.9H302.8c-3.7,0-6.8,3-6.8,6.8v140.9c0,3.7,3,6.8,6.8,6.8h208.8c3.7,0,6.8-3,6.8-6.8V198.6
	C518.3,194.9,515.3,191.9,511.5,191.9z"/>
<path class="st5" d="M509.8,196.7H304.5c-2,0-3.6,1.6-3.6,3.6v137.4c0,2,1.6,3.6,3.6,3.6h205.3c2,0,3.6-1.6,3.6-3.6V200.4
	C513.4,198.4,511.8,196.8,509.8,196.7z"/>
<path class="st4" d="M379.1,389.6v7.4c0,0.8,0.7,1.5,1.5,1.5H432c0.8,0,1.5-0.7,1.5-1.5v-7.4H379.1z"/>
<path class="st3" d="M469.8,401H347.7c-1.2,0-2.2-1-2.2-2.2c0-0.2,0-0.3,0-0.5l1.9-9c0.2-1,1.1-1.8,2.2-1.8h118.3
	c1.1,0,2,0.7,2.2,1.8l1.9,9c0.3,1.2-0.5,2.4-1.7,2.7C470.1,401,470,401,469.8,401z"/>
<path class="st4" d="M350.9,389.2h2.8c0.3,0,0.5,0.2,0.5,0.5v1.3c0,0.3-0.2,0.5-0.5,0.5h-2.8c-0.3,0-0.5-0.2-0.5-0.5v-1.3
	C350.4,389.4,350.7,389.2,350.9,389.2z"/>
<path class="st4" d="M358.5,389.2h2.8c0.3,0,0.5,0.2,0.5,0.5v1.3c0,0.3-0.2,0.5-0.5,0.5h-2.8c-0.3,0-0.5-0.2-0.5-0.5v-1.3
	C358,389.4,358.2,389.2,358.5,389.2z"/>
<path class="st4" d="M366,389.2h2.8c0.3,0,0.5,0.2,0.5,0.5v1.3c0,0.3-0.2,0.5-0.5,0.5H366c-0.3,0-0.5-0.2-0.5-0.5v-1.3
	C365.5,389.4,365.7,389.2,366,389.2z"/>
<path class="st4" d="M373.5,389.2h2.8c0.3,0,0.5,0.2,0.5,0.5v1.3c0,0.3-0.2,0.5-0.5,0.5h-2.8c-0.3,0-0.5-0.2-0.5-0.5v-1.3
	C373,389.4,373.2,389.2,373.5,389.2z"/>
<path class="st4" d="M381,389.2h2.8c0.3,0,0.5,0.2,0.5,0.5v1.3c0,0.3-0.2,0.5-0.5,0.5H381c-0.3,0-0.5-0.2-0.5-0.5v-1.3
	C380.5,389.4,380.8,389.2,381,389.2z"/>
<path class="st4" d="M388.5,389.2h2.8c0.3,0,0.5,0.2,0.5,0.5v1.3c0,0.3-0.2,0.5-0.5,0.5h-2.8c-0.3,0-0.5-0.2-0.5-0.5v-1.3
	C388.1,389.4,388.3,389.2,388.5,389.2z"/>
<path class="st4" d="M396.1,389.2h2.8c0.3,0,0.5,0.2,0.5,0.5v1.3c0,0.3-0.2,0.5-0.5,0.5h-2.8c-0.3,0-0.5-0.2-0.5-0.5v-1.3
	C395.6,389.4,395.8,389.2,396.1,389.2z"/>
<path class="st4" d="M403.6,389.2h2.8c0.3,0,0.5,0.2,0.5,0.5v1.3c0,0.3-0.2,0.5-0.5,0.5h-2.8c-0.3,0-0.5-0.2-0.5-0.5v-1.3
	C403.1,389.4,403.3,389.2,403.6,389.2z"/>
<path class="st4" d="M411.1,389.2h2.8c0.3,0,0.5,0.2,0.5,0.5v1.3c0,0.3-0.2,0.5-0.5,0.5h-2.8c-0.3,0-0.5-0.2-0.5-0.5v-1.3
	C410.6,389.4,410.8,389.2,411.1,389.2z"/>
<path class="st4" d="M418.6,389.2h2.8c0.3,0,0.5,0.2,0.5,0.5v1.3c0,0.3-0.2,0.5-0.5,0.5h-2.8c-0.3,0-0.5-0.2-0.5-0.5v-1.3
	C418.2,389.4,418.4,389.2,418.6,389.2z"/>
<path class="st4" d="M426.2,389.2h2.8c0.3,0,0.5,0.2,0.5,0.5v1.3c0,0.3-0.2,0.5-0.5,0.5h-2.8c-0.3,0-0.5-0.2-0.5-0.5v-1.3
	C425.7,389.4,425.9,389.2,426.2,389.2z"/>
<path class="st4" d="M433.7,389.2h2.8c0.3,0,0.5,0.2,0.5,0.5v1.3c0,0.3-0.2,0.5-0.5,0.5h-2.8c-0.3,0-0.5-0.2-0.5-0.5v-1.3
	C433.2,389.4,433.4,389.2,433.7,389.2z"/>
<path class="st4" d="M441.2,389.2h2.8c0.3,0,0.5,0.2,0.5,0.5v1.3c0,0.3-0.2,0.5-0.5,0.5h-2.8c-0.3,0-0.5-0.2-0.5-0.5v-1.3
	C440.7,389.4,440.9,389.2,441.2,389.2z"/>
<path class="st4" d="M448.7,389.2h2.8c0.3,0,0.5,0.2,0.5,0.5v1.3c0,0.3-0.2,0.5-0.5,0.5h-2.8c-0.3,0-0.5-0.2-0.5-0.5v-1.3
	C448.2,389.4,448.5,389.2,448.7,389.2z"/>
<path class="st4" d="M456.3,389.2h2.8c0.3,0,0.5,0.2,0.5,0.5v1.3c0,0.3-0.2,0.5-0.5,0.5h-2.8c-0.3,0-0.5-0.2-0.5-0.5v-1.3
	C455.8,389.4,456,389.2,456.3,389.2z"/>
<path class="st4" d="M463.8,389.2h2.8c0.3,0,0.5,0.2,0.5,0.5v1.3c0,0.3-0.2,0.5-0.5,0.5h-2.8c-0.3,0-0.5-0.2-0.5-0.5v-1.3
	C463.3,389.4,463.5,389.2,463.8,389.2z"/>
<path class="st4" d="M350.8,392.9h2.8c0.3,0,0.5,0.2,0.5,0.5v1.3c0,0.3-0.2,0.5-0.5,0.5h-2.8c-0.3,0-0.5-0.2-0.5-0.5v-1.3
	C350.4,393.1,350.6,392.9,350.8,392.9z"/>
<path class="st4" d="M358.4,392.9h2.8c0.3,0,0.5,0.2,0.5,0.5v1.3c0,0.3-0.2,0.5-0.5,0.5h-2.8c-0.3,0-0.5-0.2-0.5-0.5v-1.3
	C357.9,393.1,358.1,392.9,358.4,392.9z"/>
<path class="st4" d="M365.9,392.9h2.8c0.3,0,0.5,0.2,0.5,0.5v1.3c0,0.3-0.2,0.5-0.5,0.5h-2.8c-0.3,0-0.5-0.2-0.5-0.5v-1.3
	C365.4,393.1,365.6,392.9,365.9,392.9z"/>
<path class="st4" d="M373.4,392.9h2.8c0.3,0,0.5,0.2,0.5,0.5v1.3c0,0.3-0.2,0.5-0.5,0.5h-2.8c-0.3,0-0.5-0.2-0.5-0.5v-1.3
	C372.9,393.1,373.1,392.9,373.4,392.9z"/>
<path class="st4" d="M380.9,392.9h2.8c0.3,0,0.5,0.2,0.5,0.5v1.3c0,0.3-0.2,0.5-0.5,0.5h-2.8c-0.3,0-0.5-0.2-0.5-0.5v-1.3
	C380.4,393.1,380.7,392.9,380.9,392.9z"/>
<path class="st4" d="M388.5,392.9h2.8c0.3,0,0.5,0.2,0.5,0.5v1.3c0,0.3-0.2,0.5-0.5,0.5h-2.8c-0.3,0-0.5-0.2-0.5-0.5v-1.3
	C388,393.1,388.2,392.9,388.5,392.9z"/>
<path class="st4" d="M396,392.9h2.8c0.3,0,0.5,0.2,0.5,0.5v1.3c0,0.3-0.2,0.5-0.5,0.5H396c-0.3,0-0.5-0.2-0.5-0.5v-1.3
	C395.5,393.1,395.7,392.9,396,392.9z"/>
<path class="st4" d="M403.5,392.9h2.8c0.3,0,0.5,0.2,0.5,0.5v1.3c0,0.3-0.2,0.5-0.5,0.5h-2.8c-0.3,0-0.5-0.2-0.5-0.5v-1.3
	C403,393.1,403.2,392.9,403.5,392.9z"/>
<path class="st4" d="M411,392.9h2.8c0.3,0,0.5,0.2,0.5,0.5v1.3c0,0.3-0.2,0.5-0.5,0.5H411c-0.3,0-0.5-0.2-0.5-0.5v-1.3
	C410.5,393.1,410.8,392.9,411,392.9z"/>
<path class="st4" d="M418.6,392.9h2.8c0.3,0,0.5,0.2,0.5,0.5v1.3c0,0.3-0.2,0.5-0.5,0.5h-2.8c-0.3,0-0.5-0.2-0.5-0.5v-1.3
	C418.1,393.1,418.3,392.9,418.6,392.9z"/>
<path class="st4" d="M426.1,392.9h2.8c0.3,0,0.5,0.2,0.5,0.5v1.3c0,0.3-0.2,0.5-0.5,0.5h-2.8c-0.3,0-0.5-0.2-0.5-0.5v-1.3
	C425.6,393.1,425.8,392.9,426.1,392.9z"/>
<path class="st4" d="M433.6,392.9h2.8c0.3,0,0.5,0.2,0.5,0.5v1.3c0,0.3-0.2,0.5-0.5,0.5h-2.8c-0.3,0-0.5-0.2-0.5-0.5v-1.3
	C433.1,393.1,433.3,392.9,433.6,392.9z"/>
<path class="st4" d="M441.1,392.9h2.8c0.3,0,0.5,0.2,0.5,0.5v1.3c0,0.3-0.2,0.5-0.5,0.5h-2.8c-0.3,0-0.5-0.2-0.5-0.5v-1.3
	C440.6,393.1,440.9,392.9,441.1,392.9z"/>
<path class="st4" d="M448.6,392.9h2.8c0.3,0,0.5,0.2,0.5,0.5v1.3c0,0.3-0.2,0.5-0.5,0.5h-2.8c-0.3,0-0.5-0.2-0.5-0.5v-1.3
	C448.2,393.1,448.4,392.9,448.6,392.9z"/>
<path class="st4" d="M456.2,392.9h2.8c0.3,0,0.5,0.2,0.5,0.5v1.3c0,0.3-0.2,0.5-0.5,0.5h-2.8c-0.3,0-0.5-0.2-0.5-0.5v-1.3
	C455.7,393.1,455.9,392.9,456.2,392.9z"/>
<path class="st4" d="M463.7,392.9h2.8c0.3,0,0.5,0.2,0.5,0.5v1.3c0,0.3-0.2,0.5-0.5,0.5h-2.8c-0.3,0-0.5-0.2-0.5-0.5v-1.3
	C463.2,393.1,463.4,392.9,463.7,392.9z"/>
<path class="st4" d="M387,397.4h29.1c0.3,0,0.5,0.2,0.5,0.5v1.3c0,0.3-0.2,0.5-0.5,0.5H387c-0.3,0-0.5-0.2-0.5-0.5v-1.3
	C386.5,397.7,386.7,397.4,387,397.4z"/>
<path class="st2" d="M499.5,215.7H307.4c-0.4,0-0.8-0.4-0.7-0.8c0-0.4,0.3-0.7,0.7-0.7h192.1c0.4,0,0.8,0.4,0.7,0.8
	C500.2,215.3,499.9,215.7,499.5,215.7z"/>
<ellipse class="st4" cx="320.5" cy="205.7" rx="4.5" ry="4.6"/>
<ellipse class="st4" cx="335.9" cy="205.7" rx="4.5" ry="4.6"/>
<ellipse class="st4" cx="351.4" cy="205.7" rx="4.5" ry="4.6"/>
<path class="st4" d="M490.2,202.2h-11c-0.5,0-0.8,0.4-0.8,0.8c0,0.4,0.4,0.8,0.8,0.8h11c0.5,0,0.8-0.4,0.8-0.8
	C491,202.6,490.6,202.2,490.2,202.2z"/>
<path class="st4" d="M490.2,205.4h-11c-0.5,0-0.8,0.4-0.8,0.8c0,0.4,0.4,0.8,0.8,0.8h11c0.5,0,0.8-0.4,0.8-0.8
	C491,205.7,490.6,205.4,490.2,205.4z"/>
<path class="st4" d="M490.2,208.5h-11c-0.5,0-0.8,0.4-0.8,0.8c0,0.4,0.4,0.8,0.8,0.8h11c0.5,0,0.8-0.4,0.8-0.8
	C491,208.8,490.6,208.5,490.2,208.5z"/>
<path class="st6" d="M394.8,260.3h24c1.8,0,3.3,1.5,3.3,3.3v0c0,1.8-1.5,3.3-3.3,3.3h-24c-1.8,0-3.3-1.5-3.3-3.3v0
	C391.5,261.8,393,260.3,394.8,260.3z"/>
<path class="st7" d="M379.3,273.4h55c1.8,0,3.3,1.5,3.3,3.3v0c0,1.8-1.5,3.3-3.3,3.3h-55c-1.8,0-3.3-1.5-3.3-3.3v0
	C376,274.8,377.5,273.4,379.3,273.4z"/>
<path class="st7" d="M379.3,286.4h55c1.8,0,3.3,1.5,3.3,3.3v0c0,1.8-1.5,3.3-3.3,3.3h-55c-1.8,0-3.3-1.5-3.3-3.3v0
	C376,287.9,377.5,286.4,379.3,286.4z"/>
<path class="st4" d="M309.3,410.9h-60c-4.4,0-8,3.6-8,8s3.6,8,8,8h22v62h16v-62h22c4.4,0,8-3.6,8-8S313.7,410.9,309.3,410.9z"/>
<path class="st4" d="M348.9,523.2H188.4c-32.2-0.1-59.4-23.8-63.9-55.6l-5.7-20.9C107,403.4,89.1,362,65.6,323.8
	c-10.7-17.5-16.3-34.3-3.7-50.6c0.1-0.1,0.2-0.3,0.3-0.4c10.1-13.1,60.2-16,76.6-16.5c0.6,0,1.3,0,1.9,0h99.8c0.7,0,1.3,0,1.9,0
	c18,0.5,34.2,10.9,42.2,26.9c8.6,16.4,7.5,36.2-2.9,51.5c-35.1,52.7-45.8,85.7-34.8,107.1c10.6,20.7,43.2,31.3,102.6,33.3
	c15.9,0.5,23.3,13,23.3,24.3c0,11-7,23.2-22.6,23.8C349.9,523.2,349.4,523.2,348.9,523.2z"/>
<path class="st4" d="M215.7,665.7h60c4.4,0,8-3.6,8-8s-3.6-8-8-8h-22v-135h-16v135h-22c-4.4,0-8,3.6-8,8S211.2,665.7,215.7,665.7z"
	/>
<path class="st3" d="M210.9,261.2l1.3,7.6c0.6,3.7,2.7,29.9,1.2,33c-0.1-5.8-11-15-18-12.9l-11,2.5l-6.9,1.5l-5.6,1.2l-16.2,3.5
	c0-0.2,0-0.4-0.1-0.6c0-0.2-0.1-0.5-0.1-0.7c-0.3-1.5-0.9-3-1.6-4.3c-0.1,1.8-0.6,3.5-1.5,5.1c0,0,0,0.1-0.1,0.1
	c-0.3,0.5-0.6,0.9-1,1.3c0,0,0,0,0,0c0,0-3.3-53.1-3-53.6c0.3-0.3,0.5-0.7,0.8-1c0.3-0.3,0.5-0.7,0.8-1c0,0,0.1-0.1,0.1-0.1
	c0.8-0.9,1.6-1.8,2.5-2.7c0.3-0.2,0.5-0.5,0.8-0.7c4.1-3.8,8.9-6.5,14.2-8.2c0.6-0.2,1.2-0.4,1.8-0.5c0.6-0.2,1.3-0.3,1.9-0.4l0.2,0
	c0.3-0.1,0.6-0.1,0.9-0.2c0.4-0.1,0.8-0.1,1.1-0.2c4.9-0.7,9.9-0.4,14.7,0.8c0,0,0,0,0,0c4,1,7.8,2.7,11.3,5c6,4,8.3,10.4,10,17.6
	C209.8,256,210.3,258.6,210.9,261.2z"/>
<polygon class="st8" points="270,611.3 280.3,616.9 307.7,579.1 292.4,570.8 "/>
<path class="st3" d="M274.9,597.8l18.8,5.9l-3,7.9l12.9,18.7c1.6,2.4,1,5.7-1.3,7.3c-1.4,1-3.2,1.2-4.8,0.6l-21.8-8.3l-0.8-9.2
	l-4.4,7.2l-8.2-3.1L274.9,597.8z"/>
<path class="st8" d="M328.5,442.1c-6.2,1.5-12.5-2.3-14-8.5c-0.2-0.7-0.3-1.3-0.3-2L226,399.8l16.2-14.1l83.7,33.3
	c6.4,0,11.7,5.3,11.6,11.7C337.5,436.1,333.8,440.8,328.5,442.1L328.5,442.1z"/>
<path class="st6" d="M201.4,321.2c0,0-14.8,0.3-16.2,17.3s31.1,58.9,36.1,65.8s60.8,15.4,60.8,15.4l19-13.8
	c-19.9-12.9-38.1-22.8-50.3-22.4L201.4,321.2z"/>
<path class="st6" d="M183.2,396l3.6,15.5c0,0,0,14.3,2.6,17c2.5,2.6,58-2.7,58-2.7s-5.9-23.1-5.8-40.6L183.2,396z"/>
<path class="st3" d="M300.3,594.9l-20-11c-0.4-26,15.3-61.2,33.8-98.1c-41.5,7.1-80.7,9.4-114.6,0.8c-11.6-3.1-18.6-14.8-15.7-26.5
	c0.1-0.5,0.3-1.1,0.5-1.6c4.1-12.4-5-20.1,3.3-33.7c22-7.5,42.9-9.6,62-3l12,26.5l59.3-7.7c12-1.4,22.9,7.1,24.3,19.1
	c0,0.1,0,0.1,0,0.2c0.1,0.6,0.1,1.3,0.2,1.9C333.5,518,320,568.6,300.3,594.9z"/>
<circle class="st8" cx="180.9" cy="264.3" r="24.8"/>
<path class="st6" d="M175.1,297.6l22.9-1.3c2-0.1,3.8,1,4.6,2.9l6.5,15.7l26.9,22.2c0,0,10.6,13.5,10.7,31s3.8,57.9,3.8,57.9
	s-15.5-21.8-25.1-16c-1.6,1-2.2,3-3.9,4c-0.9,0.5-2.8,0-3.7,0.5c-13.2,7.8-27,15.5-28.2,14.1c-2.5-2.6-5.6-16.1-5.6-16.1l-20.9-76.9
	c-2.3-8.2-0.8-17,4-24c1.5-2.1,3-3.6,4.4-3.8C174.5,307.1,172.8,299.9,175.1,297.6z"/>
<polygon class="st8" points="369.6,643.8 379.2,637.1 357.4,595.9 343.1,605.8 "/>
<path class="st3" d="M371,616.2l-15.1,13.5c-24-26.8-42.2-64.4-57.6-107.1c-40.4-11.8-70.8-30.9-97.4-53.5
	c-9-7.6-15.8-17.4-8.1-26.7c0.4-0.4,0.7-0.9,1.1-1.3c9.1-9.3,32.1-7.6,45.6-16.1l30.1,32.2l-1.9,8.6l56.6,19.2
	c11.4,4,17.4,16.5,13.4,27.8c0,0.1,0,0.1-0.1,0.2c-0.2,0.6-0.4,1.2-0.7,1.8L371,616.2z"/>
<path class="st3" d="M364,641.1l15.4-12.2l4.8,6.9l22.7-0.1c2.9,0,5.3,2.3,5.3,5.2c0,1.7-0.8,3.3-2.3,4.3l-19.2,13.3l-8.1-4.5
	l3.5,7.7l-7.2,5L364,641.1z"/>
<path class="st8" d="M208.9,491.4c-5.9-2.5-8.7-9.3-6.2-15.2c0.3-0.6,0.6-1.2,1-1.8l-51.8-78.1l21.4-1.6l47.2,76.7
	c5.2,3.9,6.2,11.2,2.3,16.3C219.6,492,213.8,493.5,208.9,491.4L208.9,491.4z"/>
<path class="st6" d="M179.1,318.5c0,0-12.1-8.6-23.3,4.2s-10.3,65.8-10.4,74.3c0,2.7,3.8,8.4,9.2,15.1c2.4,3,5.1,6.2,7.8,9.3
	c1.6,1.8,0.2,5.6,1.8,7.4c1.6,1.8,6.2,1.5,7.7,3.1c7.2,7.8,13,13.7,13,13.7l23.4,0.3c0.3-17.4-11.7-33-27-48L179.1,318.5z"/>
<path class="st3" d="M211.9,252.2c-0.9,0.5-1.8,0.9-2.7,1.3c-3.5,1.7-7.1,3.2-10.9,4.4c-0.6-1.7-1.6-3.2-2.8-4.5
	c0.3,1.8,0.2,3.7-0.5,5.4c-5.6,1.4-11.5,1.2-17-0.7c3.6,6.7,6.3,20.7,6.1,33.2c-0.1,6.6-1,12.8-2.9,17.3l-2.5-7.7
	c-0.2-2.7-0.7-5.4-1.4-8.1c-1.7-7.4-3.3-2.5-5.6,1.2l-16.2,3.5c0-0.2,0-0.4-0.1-0.6c0-0.2-0.1-0.5-0.1-0.7c-0.3-1.5-0.9-3-1.6-4.3
	c-0.1,1.8-0.6,3.5-1.5,5.1c0,0,0,0.1-0.1,0.1c-0.3,0.5-0.6,0.9-1,1.3c0,0,0,0,0,0c-10.5,1.4-17.8-52.6-3-53.6c0.4,0,0.5-0.7,0.8-1
	c0.3-0.3,0.5-0.7,0.8-1c0,0,0.1-0.1,0.1-0.1c0.8-0.9,1.6-1.8,2.5-2.7c0.3-0.2,0.5-0.5,0.8-0.7c4.1-3.7,8.9-6.5,14.2-8.2
	c0.6-0.2,1.2-0.4,1.8-0.5c0.6-0.2,1.3-0.3,1.9-0.4l0.2,0c0.3-0.1,0.6-0.1,0.9-0.2c0.4-0.1,0.8-0.1,1.1-0.2c1.4,0.7,2.6,1.8,3.5,3.1
	l10.4-2.1c0.3-0.1,0.6-0.1,0.8-0.1l0,0C201,228.7,209.3,239.1,211.9,252.2z"/>
<path class="st3" d="M155.5,242.7c-2.2,1.6-4.5,3.2-7.3,3.6s-5.9-0.9-6.6-3.5c-0.9-3.2,2-6.1,4.6-8.2l8.3-6.6
	c1.5-1.3,3.2-2.5,5.1-3.3c1.9-0.8,4-0.8,5.9,0.2c1.8,1.2,2.9,3.3,2.8,5.5c-0.1,2.1-0.8,4.2-2,6c-3.1,4.8-8,8.2-13.7,9.3"/>
<path class="st4" d="M218.3,414.9h-60c-4.4,0-8,3.6-8,8s3.6,8,8,8h22v62h16v-62h22c4.4,0,8-3.6,8-8S222.7,414.9,218.3,414.9z"/>
<path class="st2" d="M439.9,668.6L1.2,668.9c-0.7,0-1.2-0.5-1.2-1.2c0-0.7,0.5-1.2,1.2-1.2l438.8-0.3c0.7,0,1.2,0.5,1.2,1.2
	C441.1,668.1,440.6,668.6,439.9,668.6z"/>
<polygon class="st9" points="567.6,535.8 577.4,546.4 623.1,513.8 608.7,498.1 "/>
<path class="st3" d="M587.8,550.8L587.8,550.8l-1-10.6l-0.5-0.2l-2.6-1.2l-12.4-5.9l-0.3-0.3l-2.5-2.7l-13.8,12.7l18.7,20.4l12.8,14
	l0.4-0.4C594.1,569.7,594.6,558.2,587.8,550.8C587.8,550.9,587.8,550.8,587.8,550.8L587.8,550.8z"/>
<polygon class="st9" points="517,642 530.8,646.2 553.6,594.8 533.2,588.6 "/>
<path class="st3" d="M552.8,653.4c-2.3-4.3-6.1-7.4-10.7-8.8l-6.3-8.7l-0.5,0l-16.6,1.5l-0.4-0.1l-3.5-1.1l-5.4,17.9l44.6,13.5
	l0.2-0.6C555.6,662.7,555.1,657.7,552.8,653.4z"/>
<path id="b2eb929e-713e-4b71-a146-193a455bcc79-207" class="st3" d="M631,373.3c0,0,88.3,85.2,32.5,111.6h-17.2
	c0,0-5.2-18.4-17-33.9c-1.6-2.1-7.7-1.7-9.4-3.8c-10.3-12.7-21.6-23.6-29.3-23.2l1.9,58.9l3,21c1.6,10.9-42.9,105.6-42.9,105.6
	l-27.9-11c0,0,29.1-78.1,29.5-89.3l-23.3-123.8L631,373.3z"/>
<path class="st6" d="M638.4,377.5c-0.4,0.6-1,1.2-1.7,1.6c-1.1,0.6-2.3,1.1-3.6,1.3c-19.9,4.5-84.8,13.9-101.6,9.4
	c-2.1-0.5-3.4-1.3-3.9-2.3c-1.4-3.2-1.2-16.5-0.4-32.6c0.2-3,3.5-6.3,3.7-9.5c0.1-2.4-2.8-4.6-2.7-7c1.1-16.3,2.5-32.9,3.5-43.4
	c0.6-6.8,1-11,1-11l-10.2-64.6l0.5-0.8l0.5-0.3l33-16.4l1.8-4.6c1.1-2.7,3.7-4.5,6.6-4.5l21.8-0.1c2.3,0,4.4,1.1,5.8,2.9l5.9,8.2
	l39,25l-0.2,0.5L618.8,285l-0.1,4.3v0l-0.7,34.9l1.9,4.7l-2.1,7.8c0,0,1,9.1,6.2,15.8c4.8,6.1,10.8,12.5,13.6,17.7v0
	C639.1,373.1,639.6,375.6,638.4,377.5z"/>
<path id="e9cec503-1de8-4692-84d1-4d2e854ea0bd-208" class="st3" d="M667.7,479.8l-4.7,6c0,0-43.4,30.4-44.9,33.2l-6.9,6.5
	l-16.6-17.7l8.6-10.8c6.9-8.7,15.8-15.5,26-19.9l0,0l13.2-11.7L667.7,479.8z"/>
<path class="st9" d="M640.1,394.6l-7.9-76.5l-2.1-31.5l22.1-4c0,0-0.9,22.5,2,35.2c2.9,12.5,0.4,75.1,0.2,76.7
	c4.4,4,4.8,10.8,0.8,15.2s-10.8,4.8-15.2,0.8s-4.8-10.8-0.8-15.2C639.6,395.1,639.8,394.9,640.1,394.6L640.1,394.6z"/>
<path class="st6" d="M661.7,334l-28.4,5.9l-2.5-9.9l-2.9-3.1l-5.8-30.3l-8.3-17.8L616,218l21.1,11.2l0,0c3.2,3.5,5.4,8.5,9.1,13.5
	c11.7,15.8,12.9,54.4,12.6,75.5c0,0.3,0.3,0.7,0.8,1.1C663.7,323.1,664.6,329.2,661.7,334L661.7,334z"/>
<path class="st9" d="M511.4,397.6l7.9-76.5l2.1-31.5l-22.1-4c0,0,0.9,22.5-2,35.2c-2.9,12.5-0.4,75.1-0.2,76.7
	c-4.4,4-4.8,10.8-0.8,15.2s10.8,4.8,15.2,0.8c4.4-4,4.8-10.8,0.8-15.2C512,398.1,511.7,397.9,511.4,397.6L511.4,397.6z"/>
<path class="st6" d="M537.8,281.8l-6.2,13.2l-2.2,4.6l-5.8,30.3l-2.9,3.1l-2.5,9.9l-1.2-0.2l-21.1-4.4l-6.2-1.3
	c-2.9-4.8-2-10.9,2.1-14.6c0.4-0.4,0.8-0.8,0.8-1.1c-0.3-21.1,0.9-59.6,12.6-75.4c3.7-5,5.9-10,9.2-13.5c0,0,0,0,0,0l7.9-12.9
	l0.5-0.8l0.5-0.3L537.8,281.8z"/>
<circle id="e944ea38-edcc-43c9-bf24-dbaf21228ba4" class="st9" cx="575.1" cy="157.6" r="29"/>
<path class="st3" d="M607.6,144.9c-0.1-4.9-0.7-11.3-4.1-16.3c-2.9-4.2-8.8-7.6-14.3-5.9c0.1-2.2-1-4.4-3-5.5
	c-2.1-1.3-4.6-1.5-6.8-1.7c-5.6-0.5-11.3-1.1-17,0c-6.3,1.2-11.5,4.5-14.2,8.9l-0.1,0.1l-0.5,2.7c-0.1,0.7-0.6,1.3-1.2,1.7
	c-0.6,0.4-1.4,0.4-2.1,0.1c-1.2-0.4-2.5,0.2-2.9,1.3c-0.1,0.4-0.2,0.8-0.1,1.1l0.2,1.1l-1.6-0.3c-1.2-0.2-2.4,0.6-2.7,1.8
	c-0.1,0.4,0,0.8,0.1,1.2l0.4,1.2c-0.7,0-1.3,0.3-1.8,0.8c-0.7,0.7-0.8,1.8-0.3,2.6c1.8,3,4.3,5.6,7.3,7.4c1.4,0.8,2.8,1.5,4.4,1.9
	c0.3,0.1,0.7,0.2,1,0.2c12.3,2.6,24.9,3,37.3,1.1c-0.7,2.4-1,5-0.8,7.6c0.4,3.2,2.3,5.8,4.8,6.7c0.6,0.2,1.1,0.3,1.7,0.4
	c0.6,0.1,1.1,0.2,1.7,0.4c2.5,0.9,3.8,3.7,2.9,6.2c-0.3,0.8-0.8,1.5-1.5,2.1c0,0,2.6,2.2,3,2.1c1.3-0.6,2.4-1.5,3.1-2.7
	C605.5,166.1,607.9,156.6,607.6,144.9z"/>
</svg>
