<?xml version="1.0" encoding="utf-8"?>
<!-- Generator: Adobe Illustrator 27.5.0, SVG Export Plug-In . SVG Version: 6.00 Build 0)  -->
<svg version="1.1" id="Layer_1" xmlns="http://www.w3.org/2000/svg" xmlns:xlink="http://www.w3.org/1999/xlink" x="0px" y="0px"
	 viewBox="0 0 885.7 595.5" style="enable-background:new 0 0 885.7 595.5;" xml:space="preserve">
<style type="text/css">
	.st0{fill:#D2EAFF;}
	.st1{fill:#7492AD;}
	.st2{fill:#55A0E6;}
	.st3{fill:#E6E6E6;}
	.st4{fill:#FFB6B6;}
	.st5{fill:#2F2E41;}
	.st6{fill:#A0616A;}
</style>
<circle class="st0" cx="109.3" cy="271.7" r="65"/>
<path class="st1" d="M137.4,593.7H12.3l28.3-454L59,32.7l3.5-18.1c4.2-21.4,35.6-18.5,35.8,3.3c0.6,50.6-20.6,98.3-19.6,121.8
	c4.7,106.5,14.4,257.5,33.2,302C126,474.8,133.5,581.2,137.4,593.7z"/>
<path class="st1" d="M869.4,593.7H753.7l-12.2-454l-23.3-107c-0.3-21.8,31.2-25.4,35.8-4l0,0c0,0,23,47.6,25.8,111
	c4.7,106.5,45.4,257.5,64.2,302C858,474.8,865.5,581.2,869.4,593.7z"/>
<path class="st2" d="M175.5,296.2c26.2,2.1,87,34,87,34c47.3,47.3,117.9,50.1,165,52c70.1,2.8,123.2-19,162-35c0,0,90.8-20.9,92-21
	c1.4-0.1,2.8,3.5,3,4c3,8.9-29.9,41.7-68,53c-5.2,1.5-16.9,4.6-29,14c-7.5,5.8-11.9,11.6-13,13c-10.2,12.9-64.5,61.8-126,64
	c-52.6,1.9-94.7-31-142-68c-18.8-14.7-16.5-15.8-40-34c-53.3-41.4-79.9-62.1-92-69c-1.7-1-7.6-4.2-7-6
	C168,295.6,173.7,296,175.5,296.2L175.5,296.2z"/>
<path class="st1" d="M167.5,298.2c-0.2,0-0.4,0-0.5-0.2L36.8,217.2c-0.5-0.3-0.6-0.9-0.3-1.4c0.3-0.5,0.9-0.6,1.4-0.3l130.2,80.8
	c0.5,0.3,0.6,0.9,0.3,1.4C168.2,298,167.9,298.2,167.5,298.2L167.5,298.2z"/>
<path class="st1" d="M681.5,327.2c-0.4,0-0.7-0.2-0.9-0.5c-0.3-0.5-0.1-1.1,0.4-1.3l112.6-58.8c0.5-0.3,1.1-0.1,1.3,0.4
	c0.3,0.5,0.1,1.1-0.4,1.3L682,327.1C681.8,327.2,681.7,327.2,681.5,327.2z"/>
<g>
	<path class="st3" d="M278.6,314.6c0,0-6.4,10-1.1,15.9s37,29.4,37,29.4s20,12.3,18-4.6c-2-16.9-30.5-35-30.5-35L278.6,314.6
		L278.6,314.6z"/>
	<path class="st4" d="M330.5,288c-3.4-0.3-6.6,3.8-7.1,9.1c-0.2,2.1,0,4.3,0.8,6.3l-0.5,6.1l-0.1,0l-7.1,28
		c-1.7,6.5-0.3,13.5,3.9,18.7c2.5,3.1,5.4,5,8.1,2.2c4.4-4.7,4.3-27.5,3.8-40.5l1.5-13.6c1.1-1.8,1.8-3.9,2-6
		C336.3,293,333.9,288.4,330.5,288L330.5,288z"/>
</g>
<g>
	<path class="st2" d="M340.7,286.8l0-0.4c0-0.3-0.2-0.6-0.4-0.8s-0.5-0.3-0.8-0.2l-14.1,3.1c-0.3,0.1-0.5,0.3-0.7,0.5
		c-0.1,0.3-0.2,0.6-0.1,1l0.1,0.6l0.9,4l3.6,15.5c0.1,0.6,0.6,0.9,1.1,0.9c0,0,0.1,0,0.1,0l11.1-2.5c0.1,0,0.2-0.1,0.3-0.1
		c0.4-0.2,0.6-0.7,0.5-1.2L340.7,286.8L340.7,286.8z"/>
	<path class="st1" d="M340.4,284.5c-0.2,0-0.5,0-0.8,0c0.1-0.2,0.1-0.4,0-0.6l-0.4-1.5c-0.1-0.4-0.4-0.7-0.8-0.7
		c-2.1,0-9.4,0.2-13.7,3.2c-0.3,0.2-0.4,0.5-0.4,0.9l0.1,1.7c0,0.2,0.1,0.4,0.2,0.5c-0.4,0.2-0.7,0.4-1.1,0.5
		c-0.2,0.1-0.4,0.4-0.4,0.7l0,0.7c0,0.5,0.4,0.8,0.7,0.7l16.8-3.8c0.4-0.1,0.6-0.6,0.5-1l-0.3-0.9
		C340.9,284.6,340.7,284.5,340.4,284.5L340.4,284.5z"/>
</g>
<polygon class="st4" points="296.9,306.8 292.6,320.8 274.3,316.5 273.2,293.8 "/>
<path class="st3" d="M271,313.3l23.7,2.2l9.5,9.3l13.1,11.2c0,0,7.6,10.8,5.4,24.8l12.9,10.8l-32.4,33.2l-41-34.3
	C262.4,370.4,248.4,328.4,271,313.3L271,313.3z"/>
<path class="st5" d="M327.1,372.6l9.4-1.1l15.3,1.1l50.2-29.9c6.3-3.8,14.5-1.8,18.4,4.4l40.4,64.3l-12.9,8.6l-39.9-41l-49.8,41
	c0,0-50.6,26.4-54.9-15.4L327.1,372.6L327.1,372.6z"/>
<polygon class="st5" points="358.4,410.4 439.4,402.8 516,422.2 520.3,406.1 415.6,368.3 377.9,378 "/>
<path class="st3" d="M267.7,322c0,0-7.4,9.3-2.8,15.7c4.6,6.4,33.6,33.2,33.6,33.2s18.6,14.3,18.4-2.7s-26.5-38-26.5-38L267.7,322z"
	/>
<g>
	<circle class="st4" cx="290.6" cy="287" r="20.5"/>
	<path class="st5" d="M309.5,283.5c-5.3,0-5.6,0-6.4,0c-6.5-0.2-8.2-2.7-11.5-2.6c-5.9,0.3,1.9,29.9,5.1,43.5
		c3.2,13.4-7.6,25.4-8.3,26.2c-10.9,11.8-30,14-33.3,9c-2.7-4.1,6.8-10.3,4.5-19.2c-2.2-8.7-12.5-7.8-15.4-16
		c-3-8.6,7.1-12.9,13.4-33.9c3.6-12.1,3-14.3,6.4-21.8c9.1-20,53.7-11.5,48.7,7C311.8,279.4,314.3,283.5,309.5,283.5L309.5,283.5z"
		/>
</g>
<path class="st2" d="M169,296.7c26.2,2.1,86.5,45.9,86.5,45.9c47.3,47.3,117.9,50.1,165,52c70.1,2.8,123.2-19,162-35
	c0,0,80.5,13.1,90-18c0.1-0.3,0.8-2.9,2-3c1.4-0.1,2.8,3.5,3,4c3,8.9-29.9,41.7-68,53c-5.2,1.5-16.9,4.6-29,14
	c-7.5,5.8-11.9,11.6-13,13c-10.2,12.9-64.5,61.8-126,64c-52.6,1.9-94.7-31-142-68c-18.8-14.7-16.5-15.8-40-34
	c-53.3-41.4-79.9-62.1-92-69c-1.7-1-4.1-18.2-3.5-19.9C164.5,294.1,167.2,296.5,169,296.7z"/>
<path class="st4" d="M379.6,403.6c1.5-3.1-1.2-7.5-6-9.9c-1.9-1-4-1.5-6.2-1.5l-5.5-2.6l0-0.1L338.3,373c-5.5-3.9-12.5-5.1-18.9-3
	c-3.8,1.2-6.6,3.3-4.9,6.8c2.8,5.8,24.2,13.8,36.5,18l12.1,6.2c1.3,1.7,3,3.1,4.9,4C372.9,407.3,378.1,406.7,379.6,403.6
	L379.6,403.6z"/>
<g>
	<path class="st6" d="M512.2,250.1c0,0-7.8-15.5-6.2-29.5L480.2,234l1,25.4L512.2,250.1L512.2,250.1z"/>
	
		<ellipse transform="matrix(0.3827 -0.9239 0.9239 0.3827 100.8593 586.5993)" class="st6" cx="489.4" cy="217.8" rx="23.3" ry="23.3"/>
	<g>
		<polygon class="st6" points="520,584.1 505.8,584.1 499,529.2 520,529.2 		"/>
		<path class="st5" d="M471.2,583.8L471.2,583.8c-0.4,0.7-0.7,3.2-0.7,4l0,0c0,2.7,2.2,4.8,4.8,4.8h44.1c1.8,0,3.3-1.5,3.3-3.3v-1.8
			c0,0,2.2-5.5-2.3-12.3c0,0-5.6,5.3-13.9-3l-2.5-4.5l-17.8,13l-9.9,1.2C474.3,582.3,472.3,581.9,471.2,583.8L471.2,583.8
			L471.2,583.8z"/>
	</g>
	<path class="st3" d="M478,250.1l34.2-4.7l26.4,12.4l1.6,96.3c0,0-65,7.8-75.2-2.3s-2.5-90.9-2.5-90.9L478,250.1L478,250.1z"/>
	<path class="st5" d="M495.2,223.8h6.3c0,0,5.4-6.7,4.7-2.6c-0.7,4.1,2.2,8.5,2.2,8.5l4.4-1.5c0,0,8.8-36.9-17.6-39
		S463,207.7,463,207.7s1.5,10.2,4.4,7.3s19-4.4,19-4.4L495.2,223.8L495.2,223.8z"/>
	<g>
		<polygon class="st6" points="462.2,475.4 449.2,481.2 420.8,433.7 440,425.2 		"/>
		<path class="st5" d="M417.5,494.9L417.5,494.9c-0.1,0.9,0.7,3.2,1,4l0,0c1.1,2.4,3.9,3.5,6.4,2.5l40.3-17.8
			c1.7-0.7,2.4-2.7,1.7-4.3l-0.7-1.7c0,0-0.2-5.9-7.1-10.3c0,0-2.9,7.1-13.9,2.9l-4.1-3.1L430,486l-8.5,5.1
			C419.6,492.2,417.7,492.7,417.5,494.9L417.5,494.9L417.5,494.9z"/>
	</g>
	<path class="st5" d="M535.5,344.9l4.7,14.1v48.5L525,451.3l1.2,102.3h-27.3l-3.1-104.4l2.4-51.6l-18.6-7.8l-49,3l22.9,56.3
		l-25.2,16.8c0,0-37.7-85.9-32.1-94.2c5.6-8.3,71.7-23,71.7-23S535.5,346.4,535.5,344.9L535.5,344.9z"/>
	<g>
		<path class="st6" d="M549.5,288.9l7.5,12.3c0,0,10.6,41.7,0,41.9c-10.6,0.2-32.1-21.3-32.1-21.3l2.8-11.2l7.8,3.1l-1.6-24.9H549.5
			L549.5,288.9z"/>
		<path class="st3" d="M526.2,257.7c0,0,24.9-4.4,27.2,11.9s3.6,31.7,3.6,31.7l-26.9,2.2L526.2,257.7L526.2,257.7z"/>
		<ellipse transform="matrix(0.5801 -0.8145 0.8145 0.5801 -36.0329 554.8617)" class="st6" cx="520.2" cy="312.4" rx="7" ry="14"/>
	</g>
	<g>
		<path class="st2" d="M492.7,283.3l-0.1-0.6c0-0.5-0.3-1-0.6-1.3s-0.8-0.4-1.3-0.3l-21.4,4.7c-0.4,0.1-0.8,0.4-1.1,0.8
			c-0.2,0.4-0.3,1-0.2,1.5l0.2,0.9l1.4,6.1l5.5,23.6c0.2,0.9,0.9,1.4,1.6,1.3c0.1,0,0.1,0,0.2,0l16.9-3.8c0.2,0,0.3-0.1,0.5-0.2
			c0.5-0.3,0.9-1,0.8-1.8L492.7,283.3L492.7,283.3z"/>
		<path class="st1" d="M492.3,279.8c-0.3,0-0.7,0-1.2,0c0.1-0.3,0.1-0.6,0-1l-0.6-2.3c-0.2-0.6-0.6-1-1.2-1
			c-3.2,0-14.3,0.3-20.7,4.9c-0.4,0.3-0.6,0.8-0.6,1.4l0.2,2.5c0,0.3,0.1,0.6,0.3,0.8c-0.6,0.3-1.1,0.5-1.6,0.8
			c-0.3,0.2-0.6,0.6-0.5,1l0,1.1c0,0.7,0.6,1.2,1.1,1.1l25.5-5.8c0.6-0.1,0.9-0.8,0.7-1.5l-0.5-1.3
			C493.1,280,492.7,279.7,492.3,279.8L492.3,279.8z"/>
	</g>
	<g>
		<path class="st6" d="M444.5,289.9l-7.5,12.3c0,0-10.6,41.7,0,41.9c10.6,0.2,32.1-21.3,32.1-21.3l-2.8-11.2l-7.8,3.1l1.6-24.9
			H444.5L444.5,289.9z"/>
		<path class="st3" d="M467.8,258.7c0,0-24.9-4.4-27.2,11.9c-2.3,16.3-3.6,31.7-3.6,31.7l26.9,2.2L467.8,258.7z"/>
		<ellipse transform="matrix(0.8145 -0.5801 0.5801 0.8145 -93.9089 333.0315)" class="st6" cx="473.9" cy="313.4" rx="14" ry="7"/>
	</g>
</g>
</svg>
