<?xml version="1.0" encoding="utf-8"?>
<!-- Generator: Adobe Illustrator 27.5.0, SVG Export Plug-In . SVG Version: 6.00 Build 0)  -->
<svg version="1.1" id="Layer_1" xmlns="http://www.w3.org/2000/svg" xmlns:xlink="http://www.w3.org/1999/xlink" x="0px" y="0px"
	 viewBox="0 0 770.9 732.5" style="enable-background:new 0 0 770.9 732.5;" xml:space="preserve">
<style type="text/css">
	.st0{fill:#2F2E41;}
	.st1{fill:#E6E6E6;}
	.st2{fill:#96BDE0;}
	.st3{fill:#7FA0BA;}
	.st4{fill:#F2F2F2;}
	.st5{fill:#7492AD;}
	.st6{fill:#3F3D56;}
	.st7{fill:#55A0E6;}
	.st8{fill:#A0616A;}
	.st9{fill:#FFFFFF;}
</style>
<path class="st0" d="M264.2,161.6c6.4-1.1,13.4,6.8,16.3,10.1c7.8,8.8,9.4,18.9,10.1,23.3c9.9,68.2,14.9,102.3-5.7,118.2
	c-19.5,15.1-55.3,11-62.2-2.5c-2.7-5.3-0.4-10.8,3.1-21.4c6.6-19.5,10.5-39.9,16.3-59.7C255.5,184.3,254.4,163.3,264.2,161.6
	L264.2,161.6z"/>
<path class="st0" d="M88.8,416.3l-31.3,59c-8,15.1-45.8,247.3-29,250.2l72.8,2.4l30.2,1.6l31,0.4l77,2.6l-43.2-302.4L88.8,416.3
	L88.8,416.3z"/>
<path class="st1" d="M165.8,243l62.2,2.5l5,20.7l15,12.2c5.5,4.5,8.2,11.6,7.1,18.6l-7,44c0,0,13.2,31.4-20.1,51.6l-33.3,54.1
	L79.1,434.8c0,0-10.7-1.3-3.1-8.8c7.5-7.5,17-44.6,17-44.6S91.6,365,96,360.6s1.3-15.7,1.3-15.7l17.9-66.2
	c3.5-12.9,15.2-21.9,28.5-21.9h19.9L165.8,243L165.8,243z"/>
<path class="st2" d="M644.7,666.2L101,520.9c-11.6-3.1-19.7-12.4-21.1-24.4s4.3-22.9,14.8-28.6L315.7,348c5.6-3,12.1-4.1,18.4-3.1
	l365.2,60.2c7.8,1.3,14.6,5.6,19,12.1s6.1,14.4,4.4,22.1l-42.5,204.9c-1.6,7.8-6.3,14.4-13.1,18.6c-4.6,2.8-9.8,4.3-15,4.3
	C649.7,667.2,647.2,666.8,644.7,666.2z"/>
<path class="st3" d="M644.7,666.2L101,520.9c-11.6-3.1-19.7-12.4-21.1-24.4s4.3-22.9,14.8-28.6L315.7,348c5.6-3,12.1-4.1,18.4-3.1
	l365.2,60.2c7.8,1.3,14.6,5.6,19,12.1s6.1,14.4,4.4,22.1l-42.5,204.9c-1.6,7.8-6.3,14.4-13.1,18.6c-4.6,2.8-9.8,4.3-15,4.3
	C649.7,667.2,647.2,666.8,644.7,666.2z M698.7,408.1l-365.2-60.2c-5.6-0.9-11.5,0.1-16.5,2.8L96.2,470.5c-9.5,5.1-14.6,15-13.3,25.7
	s8.5,19.1,18.9,21.8l543.6,145.3c6.9,1.8,14.1,0.8,20.2-3c6.1-3.8,10.2-9.7,11.7-16.7l42.5-204.9c1.4-6.9,0-14-4-19.8
	S705.7,409.2,698.7,408.1l0.2-1.5L698.7,408.1z"/>
<path class="st4" d="M619.8,464.5l-48.5,122.3c-4.7,11.9-17.9,17.9-30,13.8L185,478c-19.7-6.8-21.9-33.7-3.6-43.6l114.7-61.8
	c5-2.7,10.8-3.5,16.3-2.3l290.1,62.1C617,435.4,625.2,450.8,619.8,464.5L619.8,464.5z"/>
<ellipse class="st5" cx="526.4" cy="474.7" rx="20.1" ry="10.1"/>
<ellipse class="st6" cx="507.6" cy="505.5" rx="20.1" ry="10.1"/>
<ellipse class="st7" cx="399.4" cy="464" rx="54.7" ry="27.4"/>
<path class="st6" d="M304.5,462.8c0.8,0,1.5-0.5,1.8-1.3c0.3-1-0.2-2.1-1.1-2.4L265.2,445c-1-0.3-2.1,0.2-2.4,1.1
	c-0.3,1,0.2,2.1,1.1,2.4l39.9,14.1C304,462.7,304.3,462.8,304.5,462.8L304.5,462.8z"/>
<path class="st6" d="M313.3,455.9c0.8,0,1.5-0.5,1.8-1.3c0.3-1-0.2-2.1-1.1-2.4L274,438.1c-1-0.3-2.1,0.2-2.4,1.1
	c-0.3,1,0.2,2.1,1.1,2.4l39.9,14.1C312.8,455.8,313.1,455.9,313.3,455.9L313.3,455.9z"/>
<path class="st6" d="M322.1,448.9c0.8,0,1.5-0.5,1.8-1.3c0.3-1-0.2-2.1-1.1-2.4l-39.9-14.1c-1-0.3-2.1,0.2-2.4,1.1
	c-0.3,1,0.2,2.1,1.1,2.4l39.9,14.1C321.6,448.9,321.9,448.9,322.1,448.9L322.1,448.9z"/>
<path class="st6" d="M330.9,442c0.8,0,1.5-0.5,1.8-1.3c0.3-1-0.2-2.1-1.1-2.4l-39.9-14.1c-1-0.3-2.1,0.2-2.4,1.1
	c-0.3,1,0.2,2.1,1.1,2.4l39.9,14.1C330.5,442,330.7,442,330.9,442L330.9,442z"/>
<path class="st6" d="M339.7,435.1c0.8,0,1.5-0.5,1.8-1.3c0.3-1-0.2-2.1-1.1-2.4l-39.9-14.1c-1-0.3-2.1,0.2-2.4,1.1
	c-0.3,1,0.2,2.1,1.1,2.4L339,435C339.3,435.1,339.5,435.1,339.7,435.1L339.7,435.1z"/>
<path class="st6" d="M348.5,428.2c0.8,0,1.5-0.5,1.8-1.3c0.3-1-0.2-2.1-1.1-2.4l-39.9-14.1c-1-0.3-2.1,0.2-2.4,1.1
	c-0.3,1,0.2,2.1,1.1,2.4l39.9,14.1C348.1,428.2,348.3,428.2,348.5,428.2L348.5,428.2z"/>
<path class="st6" d="M357.3,421.3c0.8,0,1.5-0.5,1.8-1.3c0.3-1-0.2-2.1-1.1-2.4L318,403.5c-1-0.3-2.1,0.2-2.4,1.1
	c-0.3,1,0.2,2.1,1.1,2.4l39.9,14.1C356.9,421.2,357.1,421.3,357.3,421.3L357.3,421.3z"/>
<circle class="st8" cx="222.7" cy="211.9" r="51.6"/>
<path class="st0" d="M233.4,135.2c-14.5-2.4-22.3-3.6-30.2-1.9c-15.8,3.5-24.9,17.6-31.4,27.7c-15.6,24.1-8.6,34.2-23.9,67.9
	c-11,24.2-16.5,23.2-17.6,35.8c-2.2,26.6,20.4,53.1,44.6,63.5c1.6,0.7,26.8,11.2,34,2.5c5.2-6.4-4-17.4-15.1-47.2
	c-19.5-52.3-10.3-69.8-7.5-74.2c1.7-2.8,6.7-9.8,9.4-8.8c2.5,0.9,0.3,7.3,2.5,12.6c5.8,14.2,41.4,17.4,69.2,6.3
	c8.2-3.3,13.2-5.3,17-10.7c12.7-18.3-2.5-56.7-26.4-67.9C252.5,138.3,246.1,137.3,233.4,135.2L233.4,135.2z"/>
<path id="b-309" class="st8" d="M196.6,442.4c12.5,6.4,19.4,18,15.4,26s-17.5,9.3-30,2.9c-5-2.5-9.4-6.1-12.8-10.6L116.3,433
	l13.5-24.5l50.6,29.8C186,438.4,191.6,439.8,196.6,442.4L196.6,442.4z"/>
<path id="c-310" class="st8" d="M443.4,406.8c13.2,4.8,21.4,15.5,18.4,23.9c-3.1,8.4-16.3,11.3-29.5,6.5c-5.3-1.9-10.1-5-14-9
	l-55.7-21.1l10.5-25.9l53.8,23.6C432.5,404.1,438.2,404.8,443.4,406.8z"/>
<path class="st1" d="M136.6,269.8c0,0-10.7-22-35.2-5s-83,87.4-83,87.4S-11.8,378.5,5.2,388s139,64.1,139,64.1l30.8-21.4l-109.4-56
	l62.8-47.2L136.6,269.8L136.6,269.8z"/>
<path class="st1" d="M243.5,283c0,0,7.5-10.7,20.7,0c13.2,10.7,51.3,72.2,51.3,72.2l93.9,38.4l-13.8,28.3l-112.5-40.2L234,315
	L243.5,283L243.5,283z"/>
<path class="st0" d="M237.5,263.8c-14.3,7.3-7.7,18.5-8.2,20.7c-4.6,22.3,12.3,45.4,18.9,44c3.8-0.8,5.9-10.4,5-17.6
	c-1.1-9.4,7.9-24.2,6.9-30.8c-2.5-16.2,12.4-16.5,9.4-22.6C267.8,253.9,246,259.4,237.5,263.8L237.5,263.8z"/>
<path class="st9" d="M402.8,492.8c0.1,0,0.1,0,0.2,0c0.8-0.1,1.4-0.8,1.3-1.7l-3.4-28.6c0-0.4-0.2-0.8-0.6-1
	c-0.3-0.2-0.7-0.4-1.1-0.3l-53.7,6.5c-0.8,0.1-1.4,0.8-1.3,1.7c0.1,0.8,0.8,1.4,1.7,1.3l52.2-6.3l3.2,27.1
	C401.4,492.3,402,492.8,402.8,492.8z"/>
<g>
	<circle class="st7" cx="126.2" cy="492.4" r="28"/>
	<path class="st9" d="M113.5,488l9,15.8c0.5,0.9,2.1,1,2.6,0c3.5-6.9,8.5-12.9,14.6-17.6c0.6-0.5,1-1.3,0.5-2.1
		c-0.4-0.6-1.4-1-2.1-0.5c-6.5,5-11.9,11.4-15.7,18.7h2.6l-9-15.8C115.1,484.9,112.5,486.4,113.5,488L113.5,488L113.5,488z"/>
</g>
</svg>
