<?xml version="1.0" encoding="utf-8"?>
<!-- Generator: Adobe Illustrator 27.5.0, SVG Export Plug-In . SVG Version: 6.00 Build 0)  -->
<svg version="1.1" id="Layer_1" xmlns="http://www.w3.org/2000/svg" xmlns:xlink="http://www.w3.org/1999/xlink" x="0px" y="0px"
	 viewBox="0 0 931 633.2" style="enable-background:new 0 0 931 633.2;" xml:space="preserve">
<style type="text/css">
	.st0{fill:#96BDE0;}
	.st1{fill:#FFFFFF;}
	.st2{fill:#55A0E6;}
	.st3{opacity:0.997;fill:#55A0E6;enable-background:new    ;}
	.st4{fill:#2F2E41;}
	.st5{fill:#FEB8B8;}
	.st6{fill:#CCCCCC;}
	.st7{fill:#3F3D56;}
</style>
<g id="a2bfc056-849c-4ec6-91e1-f91319e9ec32">
	<rect id="a3c1d3c4-4e90-4475-ab67-d6aa194b0cda" x="120.4" y="297.4" class="st0" width="703.6" height="333.9"/>
	<rect id="e222743c-d215-4483-8b06-896263acb449" x="140.5" y="326" class="st1" width="663.3" height="278.5"/>
	<rect id="a5e02001-7de0-497e-bd39-9bc4e3f553c3" x="675.7" y="377.9" class="st0" width="17.2" height="17.2"/>
	<rect id="a818f6b2-9049-4be6-858a-9eef7b067dda" x="217.5" y="377.9" class="st2" width="17.2" height="17.2"/>
	<rect id="e2dc3e68-3640-4751-a187-2d32846d30c0" x="217" y="427.1" class="st0" width="57.3" height="57.3"/>
	<rect id="a0ba3db0-8b31-4423-a256-2a0dc53933ae" x="120.1" y="278.1" class="st2" width="703.6" height="29.9"/>
	<circle id="bb2c25e8-a4f5-477f-938a-ba2f4a6c137d" class="st1" cx="142.3" cy="299.7" r="5.5"/>
	<circle id="eb283697-d5f2-44f6-a11b-2e5adde2f565" class="st1" cx="163.3" cy="299.7" r="5.5"/>
	<circle id="e7e312b6-8acc-452e-9cd4-4f6349f5007f" class="st1" cx="184.3" cy="299.7" r="5.5"/>
	<rect id="b36c2a8e-a9be-4d37-810e-923692d19cdb" x="333.7" y="432.8" class="st0" width="140.3" height="8.1"/>
	<rect id="aa1d26da-49a8-41de-8cb5-b8f8184fe0ae" x="333.7" y="462.2" class="st2" width="216.6" height="8.1"/>
	<rect id="ac31809e-ecba-4f59-90db-296bd3050334" x="333.7" y="489.8" class="st0" width="176.5" height="8.1"/>
	<rect id="b84288f0-dbbf-4761-bd75-4b898461b36c" x="333.7" y="517.4" class="st0" width="103.1" height="8.1"/>
	<rect id="bd93c4e7-cb78-4a87-ab16-23d001bc2737" x="333.7" y="545" class="st0" width="155.5" height="8.1"/>
	<rect id="bba4eb33-6fa2-4df7-a8d1-83644e8e5d67" x="705.3" y="377.9" class="st0" width="17.2" height="17.2"/>
	<rect id="f2a4bb2b-ea4d-4e49-9a1a-d309a808d159" x="734.9" y="377.9" class="st0" width="17.2" height="17.2"/>
	<circle id="b03b494e-dda4-489e-89cd-b5d563742355" class="st3" cx="717.2" cy="490.6" r="34.9"/>
	<circle id="e6d27be5-fed8-4aaf-9e55-a91224dd363a" class="st4" cx="188.5" cy="55.2" r="39.3"/>
	<path id="fe6a134f-9064-47d4-b31c-90708736d4a8-350" class="st5" d="M90.8,391.2H73.6l-8.2-66.3h25.4L90.8,391.2z"/>
	<path id="fa849e20-ba67-4278-81ee-d1167b7aa6dc-351" class="st4" d="M61.3,386.3h33.2v20.9h-54C40.4,395.6,49.7,386.3,61.3,386.3z"
		/>
	<path id="a88ec020-2ed6-4a48-814f-7c14aebc27ac-352" class="st5" d="M63.9,381.6l-16.4-5.1l12.1-65.7l24.2,7.6L63.9,381.6z"/>
	<path id="b4b30a85-97bd-4362-a855-e6f58c99cba3-353" class="st4" d="M37.2,368.1l31.6,9.9L62.6,398l-51.6-16.2
		C14.5,370.8,26.2,364.6,37.2,368.1C37.2,368.1,37.2,368.1,37.2,368.1L37.2,368.1L37.2,368.1z"/>
	<path id="f42c0410-8a39-47c2-9be6-23f0eea84aff-354" class="st4" d="M69.5,355.1c-0.8,0-1.5-0.1-2.2-0.4L54.7,350
		c-2.9-1.1-4.6-4.2-3.9-7.3c3.2-14.3,14-63.1,20-89.2c7-31,109.9-36.8,114.3-37l0.4,0l11.6,14.5c4.2,13.4,2.9,23.9-3.9,31.1
		c-19.8,21.1-79,8-86.1,6.4l-31.5,82.6C74.5,353.5,72.1,355.1,69.5,355.1L69.5,355.1z"/>
	<path id="bb9232ec-2887-4985-b220-30c2c46adf62-355" class="st4" d="M87.7,365c-0.8,0-1.5-0.1-2.2-0.4l-12.7-4.7
		c-2.9-1.1-4.6-4.2-3.9-7.3c3.2-14.3,14-63.1,20-89.2c7-31,109.9-36.8,114.3-37l0.4,0l11.6,14.5c4.2,13.4,2.9,23.9-3.9,31.1
		c-19.8,21.1-79,8-86.1,6.4l-31.5,82.6C92.7,363.3,90.4,365,87.7,365L87.7,365z"/>
	<path id="bf752b52-878a-4c47-8a02-c5dd3ca125d0-356" class="st5" d="M51.1,163c0.5,0.6,0.9,1.3,1.2,2l69.2,7.3l10-13.7l22.6,12.3
		L134.5,204l-84.8-21.6c-5.8,5.7-15.1,5.6-20.8-0.3c-5.7-5.8-5.6-15.1,0.3-20.8c5.8-5.7,15.1-5.6,20.8,0.3
		C50.4,162,50.8,162.5,51.1,163L51.1,163z"/>
	<path id="ae95fee3-8471-4436-bacf-47da3ee4edce-357" class="st6" d="M211.9,246.4c-1,0-2-0.2-2.9-0.7c-13.8-7-40.8-19.2-65.7-21.8
		c-1.7-0.2-3.3-1.1-4.3-2.5c-1.1-1.4-1.5-3.2-1.2-4.9c2.3-12.5,7.4-44.2,6.8-69.7c-0.4-16.1,10.4-30.4,26.1-34.3l0,0
		c4.6-1.2,9.2-2.1,13.9-2.7c19.1-2.4,36.5,11.1,38.9,30.1c0.4,3.4,0.4,6.8-0.2,10.2c-4.5,26.4-8.9,63.2-5,89
		c0.4,2.4-0.6,4.7-2.6,6.1C214.5,246,213.2,246.4,211.9,246.4z"/>
	<path id="f8a5325a-7268-4362-a255-60631c9bfca5-358" class="st6" d="M145.8,179.3c-0.9,0-1.7-0.2-2.5-0.5l-18-7.8
		c-3.2-1.4-4.7-5.1-3.3-8.3l13.9-32.2c3.5-8.2,12.9-12,21.1-8.5s12,12.9,8.5,21.1l0,0c0,0.1-0.1,0.1-0.1,0.2l-13.9,32.2
		C150.6,177.8,148.3,179.3,145.8,179.3z"/>
	<circle id="e89a297e-1488-4b62-b167-7800139de88b" class="st5" cx="187.1" cy="64.4" r="34.5"/>
	<path id="bfc7d311-3606-4cd9-8309-fa0ce7944c94-359" class="st4" d="M152,47.4c16.3,10,34.7,16,53.8,17.7l-5.7-6.8
		c4.1,1.5,8.5,2.4,12.9,2.6c4.5,0.1,8.7-1.9,11.5-5.4c2.3-3.6,2.6-8.2,0.9-12.1c-1.7-3.9-4.4-7.2-7.8-9.8
		C205.3,24,189,21.1,174.2,26c-5,1.5-9.5,4.4-12.9,8.3c-3.3,4-9.6,7.6-7.9,12.5L152,47.4z"/>
	<path id="ec73fef4-50dc-4543-9636-3b24ac170308-360" class="st4" d="M190.1,18.4c6.9-7,15.2-12.3,24.3-15.7
		c5.8-2.4,12.2-3.2,18.4-2.3c6.2,1.2,12,5.5,13.7,11.5c1.4,4.9,0,10.3-2.2,14.9s-5.1,9-6.8,13.8c-6,16.3,2.4,34.4,18.7,40.3
		c4.1,1.5,8.5,2.1,12.9,1.8c-6,0.8-11.6,3.7-17.5,5.2s-12.9,1.4-17.3-2.8c-4.6-4.5-4.7-11.8-4.5-18.2l1-28.8
		c0.2-4.9,0.3-9.9-1.4-14.5s-6-8.6-10.8-8.5c-3.7,0-7,2.3-10,4.5s-6.1,4.6-9.8,4.9s-7.9-2.4-7.6-6.1"/>
	<path id="ba6ab2e4-b23b-4027-ba52-bbc91f9115f8-361" class="st5" d="M129.1,237.5c-8.5,0-15.4-6.9-15.4-15.5
		c0-8.5,6.9-15.4,15.5-15.4c2,0,4,0.4,5.9,1.2l0,0c0.6,0.3,1.2,0.6,1.8,0.9l62.8-28.2l1.8-17l27.1-0.7l-0.2,28.3
		c-0.1,6.7-4.6,12.6-11,14.5l-73.4,20.9c-0.1,0.5-0.3,1-0.5,1.4C141,233.8,135.4,237.5,129.1,237.5L129.1,237.5z"/>
	<path id="b13d6e0f-103e-49e8-b98c-f9f1d84e31ae-362" class="st6" d="M226.2,176.8c-0.8,0.4-1.6,0.6-2.5,0.7l-19.6,1.2
		c-3.5,0.2-6.5-2.4-6.7-5.9l-2.2-35c-0.5-8.9,6.2-16.5,15.1-17.1c8.9-0.5,16.5,6.2,17.1,15.1l2.2,35
		C229.8,173.2,228.4,175.6,226.2,176.8L226.2,176.8z"/>
	<path id="ef169b54-99b1-4807-9c68-842c3cbd65db" class="st7" d="M69.7,231.3h117.1c1,0,1.8,0.8,1.8,1.8v6.3c0,1-0.8,1.8-1.8,1.8
		H69.7c-1,0-1.8-0.8-1.8-1.8V233C67.9,232.1,68.7,231.3,69.7,231.3z"/>
	<path id="ba69314c-00f4-451f-ada7-fcdfd2edc53a-363" class="st7" d="M22.9,232v-68.7c0-5,4.1-9.1,9.1-9.1h124.8
		c5,0,9.1,4.1,9.1,9.1V232c0,5-4.1,9.1-9.1,9.1H32C27,241.1,22.9,237,22.9,232z"/>
	<circle id="bf28e027-707c-49c1-b6c0-ef0059b61f2f" class="st1" cx="95.9" cy="197.6" r="8.4"/>
</g>
</svg>
