<?xml version="1.0" encoding="utf-8"?>
<!-- Generator: Adobe Illustrator 27.5.0, SVG Export Plug-In . SVG Version: 6.00 Build 0)  -->
<svg version="1.1" id="Layer_1" xmlns="http://www.w3.org/2000/svg" xmlns:xlink="http://www.w3.org/1999/xlink" x="0px" y="0px"
	 viewBox="0 0 674.8 590.6" style="enable-background:new 0 0 674.8 590.6;" xml:space="preserve">
<style type="text/css">
	.st0{fill:#FFB6B6;}
	.st1{fill:#2F2E41;}
	.st2{fill:#E6E6E6;}
	.st3{fill:#55A0E6;}
	.st4{fill:#3F3D56;}
	.st5{fill:#FFFFFF;}
	.st6{fill:#E4E4E4;}
</style>
<polygon class="st0" points="582.5,577.3 570.2,577.3 564.3,529.8 582.5,529.8 "/>
<path class="st1" d="M585.6,589.2l-39.7,0v-0.5c0-8.5,6.9-15.4,15.4-15.4h0l7.2-5.5l13.5,5.5l3.5,0L585.6,589.2z"/>
<polygon class="st0" points="525.3,577.3 513,577.3 507.2,529.8 525.4,529.8 "/>
<path class="st1" d="M528.5,589.2l-39.7,0v-0.5c0-8.5,6.9-15.4,15.4-15.4h0l7.2-5.5l13.5,5.5l3.5,0L528.5,589.2z"/>
<path class="st1" d="M520,317.9l80,2c15.2,8.3,15.4,26.1,10.4,47.3c0,0,1.7,12.6-1.7,16s-5,3.4-3.4,9.2s-7.2,15.5-6.1,16.6
	s3.6,7,3.6,7l-8.4,47.9c0,0-5.9,83.2-7.6,84.9s-3.4,0-1.7,4.2s3.4,2.5,1.7,4.2c-1.5,1.6-2.9,3.3-4.2,5h-20.3c0,0-1.5-8.4-1.5-9.2
	s-1.7-5.9-1.7-6.7s1.5-2.3,1.5-2.3c0.5-1.7,0.9-3.5,1-5.2c0-1.7,5-66.4,5-66.4l-10.1-84l-24.4,82.3c0,0,0,72.3-1.7,73.9
	s-1.7,0.8-0.8,4.2s4.2,2.5,1.7,5s-3.4-1.7-2.5,2.5l0.8,4.2l-25.2,0.4c0,0-3.4-7.1-1.7-9.6s1.6-1.8-0.5-6s-2.9-5-2.1-5.8
	s0.8-5.3,0.8-5.3l4.2-80.4c0,0,0.8-84.9,0.8-87.4c0.1-1.3-0.2-2.6-0.7-3.8v-3.4l3.2-12.1L520,317.9z"/>
<circle class="st0" cx="568.1" cy="126.7" r="24.9"/>
<path class="st2" d="M555.7,168c-5.4,3.2-8.6,9-10.4,15c-3.4,11-5.5,22.4-6.1,33.9l-1.9,34.5l-24.1,73.4c20.8,17.6,99.2,4,99.2,4
	s2.4-0.8,0-3.2s-4.7-0.3-2.3-2.7s0.7,0.3-0.1-2.1s0-0.8,0.8-1.6s-6.2-8-6.2-8L611,269l8-85c-9.6-12-29-19.1-29-19.1l-5-9l-25,2
	L555.7,168z"/>
<path class="st1" d="M552.2,112.1c1,0,1.9,0.1,2.9,0.4c1.8,0.4,3.7,0.8,5.6,0.9c11.8,1.1,21.4,10.2,23.1,21.9
	c1.4-1.3,4.7-3.6,7.4-1.4l0,0c0,0,0.1,0.1,0.2,0c1.8-0.8,5-11.3,5.1-20.5c0.1-4.9-0.7-11.1-4.7-13.1l-0.2-0.1l-0.1-0.2
	c-0.3-1.1-3.2-3-8.3-4.4c-9.3-2.7-23.2-7.8-31-0.2c-0.6,2.6-2.5,8-4.5,8.7c-2.2,0.7-4,1.3-4.3,3.9c-0.2,3.8-0.2,7.5,0.1,11.3
	c0.7-2.3,2.2-4.3,4.1-5.7C549,112.6,550.6,112.1,552.2,112.1z"/>
<path class="st0" d="M506,249.5l40.6-26l-20.5-27.2l-20.2,24.8L443,225c-4.7-4.7-12.3-4.6-17,0.1c-4.7,4.7-4.6,12.3,0.1,17
	c4.4,4.4,11.4,4.6,16.2,0.6L506,249.5z"/>
<path class="st2" d="M584.3,187.2c2.4,14.3-42.1,41.5-42.1,41.5c0-3.3-26.6,21.9-27.8,19.1c-3.4-7.9-5.8-26.6-10.6-29.6
	c-2.7-1.7,16.4-17.8,16.4-17.8s10-10.1,23.1-22.8c7.4-7.4,18.1-10.6,28.4-8.3C571.7,169.4,581.9,172.9,584.3,187.2z"/>
<path class="st0" d="M668,256.3l-26.9-40l-26.7,21l25.3,19.7l5.2,62.8c-4.6,4.8-4.4,12.4,0.5,17c4.8,4.6,12.4,4.4,17-0.5
	c4.3-4.5,4.4-11.5,0.3-16.2L668,256.3z"/>
<path class="st2" d="M604,179.4c14.2-2.7,42.4,41.3,42.4,41.3c-3.3,0.1,22.5,26.1,19.7,27.3c-7.8,3.6-26.5,6.4-29.3,11.2
	c-1.7,2.8-18.1-16-18.1-16s-10.3-9.8-23.3-22.7c-7.6-7.3-11-17.9-8.9-28.2C586.5,192.3,589.8,182,604,179.4z"/>
<path class="st3" d="M415.2,228.8H75c-11.1,0-20,9-20,20v211.8c0,11.1,9,20,20,20h340.2c11.1,0,20-9,20-20V248.8
	C435.2,237.8,426.2,228.8,415.2,228.8z"/>
<path class="st4" d="M415.2,228.8H75c-11.1,0-20,9-20,20v211.8c0,11.1,9,20,20,20h340.2c11.1,0,20-9,20-20V248.8
	C435.2,237.8,426.2,228.8,415.2,228.8z M421.7,380.9c-0.2,44.8-36.2,81.3-81,82.1c-34.5,0.4,19.1,0.6-22.5,0.6
	c-95.2,0-194.5-0.9-231.5-1.5c-10.1-0.2-18.3-8.5-18.3-18.6V248.9c0-3.6,2.9-6.6,6.6-6.6h340.2c3.6,0,6.6,2.9,6.6,6.6L421.7,380.9z"
	/>
<path class="st4" d="M373.3,106.8H114.1c-4.7,0-8.9,3-10.5,7.4l-40,112.3c-2.1,5.8,1,12.1,6.7,14.2c1.2,0.4,2.4,0.6,3.7,0.6
	l347.6,0.6h0c6.1,0,11.1-5,11.1-11.1c0-1.5-0.3-3-0.9-4.4l-0.6,0.3l0.6-0.3l-48.4-112.9C381.8,109.5,377.7,106.8,373.3,106.8z"/>
<path class="st4" d="M432.8,228.9c0,1.5-0.3,3-0.9,4.4l-48.4,86.9c-1.8,4.1-5.8,6.7-10.2,6.7H114.1c-4.7,0-8.9-3-10.5-7.4l-40-86.3
	c-2.1-5.8,1-12.1,6.7-14.2c0,0,0,0,0,0c1.2-0.4,2.4-0.6,3.7-0.6l42.5-0.1l17.3,0l228-0.4l17.3,0l42.4-0.1h0
	C427.8,217.8,432.8,222.8,432.8,228.9z"/>
<path class="st4" d="M100.5,387.7c5.1,0,75.7,4.3,75.7,9.5s-70.6,9.2-75.7,9.2c-5.1,0-9.3-4.2-9.3-9.3S95.4,387.7,100.5,387.7z"/>
<path class="st2" d="M357.1,38.5H138.6c-12.2,0-22.1,9.9-22.1,22.1V327h256.8c2.1,0,4.2-0.6,6-1.7V60.6
	C379.2,48.4,369.3,38.5,357.1,38.5z"/>
<path class="st5" d="M273.7,56.4H154c-11.1,0-20.1,9-20.1,20.1V327h228V144.6C361.8,95.9,322.4,56.5,273.7,56.4z"/>
<path class="st6" d="M323,304.7H172.7c-2.7,0-4.9,2.2-4.9,4.9c0,2.7,2.2,4.9,4.9,4.9c0,0,0,0,0,0H323c2.7,0,4.9-2.2,4.9-4.9
	C328,306.9,325.8,304.7,323,304.7C323.1,304.7,323.1,304.7,323,304.7z"/>
<path class="st6" d="M323,285.3H172.7c-2.7,0-4.9,2.2-4.9,4.9c0,2.7,2.2,4.9,4.9,4.9H323c2.7,0,4.9-2.2,4.9-4.9
	C328,287.5,325.8,285.3,323,285.3C323.1,285.3,323.1,285.3,323,285.3z"/>
<path class="st6" d="M237.9,266h-65.2c-2.7,0-4.9,2.2-4.9,4.9c0,2.7,2.2,4.9,4.9,4.9c0,0,0,0,0,0h65.2c2.7,0,4.9-2.2,4.9-4.9
	C242.8,268.2,240.6,266,237.9,266C237.9,266,237.9,266,237.9,266L237.9,266z"/>
<path class="st6" d="M323,225.4H172.7c-2.7,0-4.9,2.2-4.9,4.9c0,2.7,2.2,4.9,4.9,4.9H323c2.7,0,4.9-2.2,4.9-4.9
	C328,227.6,325.8,225.4,323,225.4C323.1,225.4,323.1,225.4,323,225.4z"/>
<path class="st6" d="M323,206H172.7c-2.7,0-4.9,2.2-4.9,4.9c0,2.7,2.2,4.9,4.9,4.9c0,0,0,0,0,0H323c2.7,0,4.9-2.2,4.9-4.9
	C328,208.2,325.8,206,323,206C323.1,206,323.1,206,323,206z"/>
<path class="st6" d="M237.9,186.6h-65.2c-2.7,0-4.9,2.2-4.9,4.9c0,2.7,2.2,4.9,4.9,4.9h65.2c2.7,0,4.9-2.2,4.9-4.9
	S240.6,186.6,237.9,186.6C237.9,186.6,237.9,186.6,237.9,186.6L237.9,186.6z"/>
<path class="st3" d="M323,146.1H172.7c-2.7,0-4.9,2.2-4.9,4.9c0,2.7,2.2,4.9,4.9,4.9H323c2.7,0,4.9-2.2,4.9-4.9
	C328,148.3,325.8,146.1,323,146.1C323.1,146.1,323.1,146.1,323,146.1z"/>
<path class="st3" d="M323,126.7H172.7c-2.7,0-4.9,2.2-4.9,4.9c0,2.7,2.2,4.9,4.9,4.9H323c2.7,0,4.9-2.2,4.9-4.9
	C328,128.9,325.8,126.7,323,126.7C323.1,126.7,323.1,126.7,323,126.7z"/>
<path class="st3" d="M237.9,107.3h-65.2c-2.7,0-4.9,2.2-4.9,4.9c0,2.7,2.2,4.9,4.9,4.9h65.2c2.7,0,4.9-2.2,4.9-4.9
	S240.6,107.3,237.9,107.3C237.9,107.3,237.9,107.3,237.9,107.3L237.9,107.3z"/>
<circle class="st3" cx="371" cy="38.2" r="38.2"/>
<path class="st5" d="M365.8,58c-1.3,0-2.6-0.6-3.4-1.7L352,42.4c-1.4-1.9-1-4.5,0.8-5.9s4.5-1,5.9,0.8c0,0,0,0,0,0l6.8,9.1
	l17.5-26.2c1.3-2,3.9-2.5,5.9-1.2c2,1.3,2.5,3.9,1.2,5.9l-20.8,31.2c-0.8,1.1-2,1.9-3.4,1.9C365.9,58,365.9,58,365.8,58z"/>
</svg>
