<?xml version="1.0" encoding="utf-8"?>
<!-- Generator: Adobe Illustrator 27.5.0, SVG Export Plug-In . SVG Version: 6.00 Build 0)  -->
<svg version="1.1" id="Layer_1" xmlns="http://www.w3.org/2000/svg" xmlns:xlink="http://www.w3.org/1999/xlink" x="0px" y="0px"
	 viewBox="0 0 786.8 572.3" style="enable-background:new 0 0 786.8 572.3;" xml:space="preserve">
<style type="text/css">
	.st0{fill:#F2F2F2;}
	.st1{fill:#9EBCDD;}
	.st2{fill:#3F3D56;}
	.st3{fill:#689EE0;}
	.st4{fill:#2F2E41;}
	.st5{fill:#FFFFFF;}
	.st6{fill:#FFB6B6;}
	.st7{fill:#E6E6E6;}
	.st8{opacity:0.2;enable-background:new    ;}
</style>
<circle class="st0" cx="458.3" cy="74.2" r="26.7"/>
<path class="st1" d="M665.4,497.2c39.7-30.2,58.6-81,46.8-129.5c-0.3-1.2-0.6-2.4-0.9-3.6c-7.9-28.8-27.3-56.1-55.7-65.3
	c-23.8-7.7-49.8-1.8-74.7-4.9c-48.8-6-86.6-45.5-113.2-86.8c-26.6-41.3-47.1-87.6-82.4-121.7C327,29.1,231.9,17,159.7,53.6
	C87.4,90.3,41.4,171.5,43.3,252.5c2,81,50,158.4,119.9,199.5c25.7,15.1,55.3,25.8,84.8,22c25.6-3.2,48.9-17,74.4-21.1
	c40.1-6.4,79.9,11.7,114.6,32.8c34.7,21.1,68.2,46.2,107.6,56C582.9,551.3,630.3,523.9,665.4,497.2z"/>
<path class="st2" d="M608.4,55.3c-0.9-0.6-1.8-1.1-2.6-1.7c-25.1-16.1-52.1-29.2-80.3-38.9l-6.5,90.2h-41.5V1.5
	c-2.6-0.5-5.2-1.1-7.9-1.5v104.9h-49.3c-56.5,0-102.3-45.8-102.3-102.3v0c-2.6,0.6-5.3,1.2-7.9,1.8v100.4h-40.1l-6.2-86
	c-29,11.1-56.5,25.7-81.9,43.5c-0.4,0.3-0.9,0.6-1.3,0.9c-2.2,1.6-4.4,3.1-6.6,4.7v344.2h118.3l-2.1-29l-11.5-159h231.6l-11.5,159
	l-2.1,29h117V58.8C611.9,57.6,610.2,56.5,608.4,55.3z M310.2,198.1h-33.4l-6.2-85.3h39.6V198.1z M469.6,198.1h-56.1v-1.7
	c0-3.4-2.8-6.2-6.2-6.2c0,0,0,0,0,0H383c-3.4,0-6.2,2.8-6.2,6.2c0,0,0,0,0,0v1.7h-58.7v-85.3h151.5L469.6,198.1z M477.5,198.1v-85.3
	h40.9l-6.2,85.3H477.5z"/>
<path class="st2" d="M0,434.3c8.7,10.3,18.1,20,28.1,29l730.6,1c10-9,19.4-18.7,28.1-29L0,434.3z"/>
<path class="st2" d="M495.4,341.6v85.7c0,2.3,1.8,4.1,4.1,4.1h127c2.3,0,4.1-1.8,4.1-4.1v-85.7c0-2.3-1.8-4.1-4.1-4.1h-127
	C497.3,337.5,495.4,339.3,495.4,341.6z"/>
<path class="st3" d="M498.4,342.7v83.6c0,1.2,1,2.2,2.2,2.2h124.9c1.2,0,2.2-1,2.2-2.2v-83.6c0-1.2-1-2.2-2.2-2.2H500.6
	C499.4,340.5,498.4,341.4,498.4,342.7z"/>
<path class="st4" d="M492.8,444c0.5,0.6,1.2,0.9,1.9,0.9h136c1.4,0,2.5-1.1,2.5-2.5c0-0.2,0-0.3-0.1-0.5l-2.1-10
	c-0.2-0.8-0.8-1.5-1.6-1.8c-0.3-0.1-0.6-0.2-0.9-0.2H496.8c-0.3,0-0.6,0.1-0.9,0.2c-0.8,0.3-1.4,1-1.6,1.8l-2.1,10
	C492.1,442.7,492.3,443.4,492.8,444z"/>
<path class="st2" d="M627.1,434.2h-3.2c-0.3,0-0.5-0.2-0.5-0.5v-1.5c0-0.3,0.2-0.5,0.5-0.5h3.2c0.3,0,0.5,0.2,0.5,0.5v1.5
	C627.6,434,627.4,434.2,627.1,434.2z"/>
<path class="st2" d="M618.8,434.2h-3.2c-0.3,0-0.5-0.2-0.5-0.5v-1.5c0-0.3,0.2-0.5,0.5-0.5h3.2c0.3,0,0.5,0.2,0.5,0.5v1.5
	C619.3,434,619,434.2,618.8,434.2z"/>
<path class="st2" d="M610.4,434.2h-3.2c-0.3,0-0.5-0.2-0.5-0.5v-1.5c0-0.3,0.2-0.5,0.5-0.5h3.2c0.3,0,0.5,0.2,0.5,0.5v1.5
	C610.9,434,610.7,434.2,610.4,434.2z"/>
<path class="st2" d="M602,434.2h-3.2c-0.3,0-0.5-0.2-0.5-0.5v-1.5c0-0.3,0.2-0.5,0.5-0.5h3.2c0.3,0,0.5,0.2,0.5,0.5v1.5
	C602.5,434,602.3,434.2,602,434.2z"/>
<path class="st2" d="M593.6,434.2h-3.2c-0.3,0-0.5-0.2-0.5-0.5v-1.5c0-0.3,0.2-0.5,0.5-0.5h3.2c0.3,0,0.5,0.2,0.5,0.5v1.5
	C594.1,434,593.9,434.2,593.6,434.2z"/>
<path class="st2" d="M585.3,434.2H582c-0.3,0-0.5-0.2-0.5-0.5v-1.5c0-0.3,0.2-0.5,0.5-0.5h3.2c0.3,0,0.5,0.2,0.5,0.5v1.5
	C585.7,434,585.5,434.2,585.3,434.2z"/>
<path class="st2" d="M576.9,434.2h-3.2c-0.3,0-0.5-0.2-0.5-0.5v-1.5c0-0.3,0.2-0.5,0.5-0.5h3.2c0.3,0,0.5,0.2,0.5,0.5v1.5
	C577.4,434,577.2,434.2,576.9,434.2z"/>
<path class="st2" d="M568.5,434.2h-3.2c-0.3,0-0.5-0.2-0.5-0.5v-1.5c0-0.3,0.2-0.5,0.5-0.5h3.2c0.3,0,0.5,0.2,0.5,0.5v1.5
	C569,434,568.8,434.2,568.5,434.2z"/>
<path class="st2" d="M560.1,434.2h-3.2c-0.3,0-0.5-0.2-0.5-0.5v-1.5c0-0.3,0.2-0.5,0.5-0.5h3.2c0.3,0,0.5,0.2,0.5,0.5v1.5
	C560.6,434,560.4,434.2,560.1,434.2z"/>
<path class="st2" d="M551.8,434.2h-3.2c-0.3,0-0.5-0.2-0.5-0.5v-1.5c0-0.3,0.2-0.5,0.5-0.5h3.2c0.3,0,0.5,0.2,0.5,0.5v1.5
	C552.2,434,552,434.2,551.8,434.2z"/>
<path class="st2" d="M543.4,434.2h-3.2c-0.3,0-0.5-0.2-0.5-0.5v-1.5c0-0.3,0.2-0.5,0.5-0.5h3.2c0.3,0,0.5,0.2,0.5,0.5v1.5
	C543.9,434,543.6,434.2,543.4,434.2z"/>
<path class="st2" d="M535,434.2h-3.2c-0.3,0-0.5-0.2-0.5-0.5v-1.5c0-0.3,0.2-0.5,0.5-0.5h3.2c0.3,0,0.5,0.2,0.5,0.5v1.5
	C535.5,434,535.3,434.2,535,434.2z"/>
<path class="st2" d="M526.6,434.2h-3.2c-0.3,0-0.5-0.2-0.5-0.5v-1.5c0-0.3,0.2-0.5,0.5-0.5h3.2c0.3,0,0.5,0.2,0.5,0.5v1.5
	C527.1,434,526.9,434.2,526.6,434.2z"/>
<path class="st2" d="M518.2,434.2H515c-0.3,0-0.5-0.2-0.5-0.5v-1.5c0-0.3,0.2-0.5,0.5-0.5h3.2c0.3,0,0.5,0.2,0.5,0.5v1.5
	C518.7,434,518.5,434.2,518.2,434.2z"/>
<path class="st2" d="M509.9,434.2h-3.2c-0.3,0-0.5-0.2-0.5-0.5v-1.5c0-0.3,0.2-0.5,0.5-0.5h3.2c0.3,0,0.5,0.2,0.5,0.5v1.5
	C510.4,434,510.1,434.2,509.9,434.2z"/>
<path class="st2" d="M501.5,434.2h-3.2c-0.3,0-0.5-0.2-0.5-0.5v-1.5c0-0.3,0.2-0.5,0.5-0.5h3.2c0.3,0,0.5,0.2,0.5,0.5v1.5
	C502,434,501.8,434.2,501.5,434.2z"/>
<path class="st2" d="M627.2,438.4H624c-0.3,0-0.5-0.2-0.5-0.5v-1.5c0-0.3,0.2-0.5,0.5-0.5h3.2c0.3,0,0.5,0.2,0.5,0.5v1.5
	C627.7,438.2,627.5,438.4,627.2,438.4z"/>
<path class="st2" d="M618.9,438.4h-3.2c-0.3,0-0.5-0.2-0.5-0.5v-1.5c0-0.3,0.2-0.5,0.5-0.5h3.2c0.3,0,0.5,0.2,0.5,0.5v1.5
	C619.4,438.2,619.1,438.4,618.9,438.4z"/>
<path class="st2" d="M610.5,438.4h-3.2c-0.3,0-0.5-0.2-0.5-0.5v-1.5c0-0.3,0.2-0.5,0.5-0.5h3.2c0.3,0,0.5,0.2,0.5,0.5v1.5
	C611,438.2,610.8,438.4,610.5,438.4z"/>
<path class="st2" d="M602.1,438.4h-3.2c-0.3,0-0.5-0.2-0.5-0.5v-1.5c0-0.3,0.2-0.5,0.5-0.5h3.2c0.3,0,0.5,0.2,0.5,0.5v1.5
	C602.6,438.2,602.4,438.4,602.1,438.4z"/>
<path class="st2" d="M593.7,438.4h-3.2c-0.3,0-0.5-0.2-0.5-0.5v-1.5c0-0.3,0.2-0.5,0.5-0.5h3.2c0.3,0,0.5,0.2,0.5,0.5v1.5
	C594.2,438.2,594,438.4,593.7,438.4z"/>
<path class="st2" d="M585.4,438.4h-3.2c-0.3,0-0.5-0.2-0.5-0.5v-1.5c0-0.3,0.2-0.5,0.5-0.5h3.2c0.3,0,0.5,0.2,0.5,0.5v1.5
	C585.8,438.2,585.6,438.4,585.4,438.4z"/>
<path class="st2" d="M577,438.4h-3.2c-0.3,0-0.5-0.2-0.5-0.5v-1.5c0-0.3,0.2-0.5,0.5-0.5h3.2c0.3,0,0.5,0.2,0.5,0.5v1.5
	C577.5,438.2,577.3,438.4,577,438.4z"/>
<path class="st2" d="M568.6,438.4h-3.2c-0.3,0-0.5-0.2-0.5-0.5v-1.5c0-0.3,0.2-0.5,0.5-0.5h3.2c0.3,0,0.5,0.2,0.5,0.5v1.5
	C569.1,438.2,568.9,438.4,568.6,438.4z"/>
<path class="st2" d="M560.2,438.4H557c-0.3,0-0.5-0.2-0.5-0.5v-1.5c0-0.3,0.2-0.5,0.5-0.5h3.2c0.3,0,0.5,0.2,0.5,0.5v1.5
	C560.7,438.2,560.5,438.4,560.2,438.4z"/>
<path class="st2" d="M551.9,438.4h-3.2c-0.3,0-0.5-0.2-0.5-0.5v-1.5c0-0.3,0.2-0.5,0.5-0.5h3.2c0.3,0,0.5,0.2,0.5,0.5v1.5
	C552.3,438.2,552.1,438.4,551.9,438.4z"/>
<path class="st2" d="M543.5,438.4h-3.2c-0.3,0-0.5-0.2-0.5-0.5v-1.5c0-0.3,0.2-0.5,0.5-0.5h3.2c0.3,0,0.5,0.2,0.5,0.5v1.5
	C544,438.2,543.7,438.4,543.5,438.4z"/>
<path class="st2" d="M535.1,438.4h-3.2c-0.3,0-0.5-0.2-0.5-0.5v-1.5c0-0.3,0.2-0.5,0.5-0.5h3.2c0.3,0,0.5,0.2,0.5,0.5v1.5
	C535.6,438.2,535.4,438.4,535.1,438.4z"/>
<path class="st2" d="M526.7,438.4h-3.2c-0.3,0-0.5-0.2-0.5-0.5v-1.5c0-0.3,0.2-0.5,0.5-0.5h3.2c0.3,0,0.5,0.2,0.5,0.5v1.5
	C527.2,438.2,527,438.4,526.7,438.4z"/>
<path class="st2" d="M518.3,438.4h-3.2c-0.3,0-0.5-0.2-0.5-0.5v-1.5c0-0.3,0.2-0.5,0.5-0.5h3.2c0.3,0,0.5,0.2,0.5,0.5v1.5
	C518.8,438.2,518.6,438.4,518.3,438.4z"/>
<path class="st2" d="M510,438.4h-3.2c-0.3,0-0.5-0.2-0.5-0.5v-1.5c0-0.3,0.2-0.5,0.5-0.5h3.2c0.3,0,0.5,0.2,0.5,0.5v1.5
	C510.5,438.2,510.2,438.4,510,438.4z"/>
<path class="st2" d="M501.6,438.4h-3.2c-0.3,0-0.5-0.2-0.5-0.5v-1.5c0-0.3,0.2-0.5,0.5-0.5h3.2c0.3,0,0.5,0.2,0.5,0.5v1.5
	C502.1,438.2,501.9,438.4,501.6,438.4z"/>
<path class="st2" d="M587,443.4h-32.5c-0.3,0-0.5-0.2-0.5-0.5v-1.5c0-0.3,0.2-0.5,0.5-0.5H587c0.3,0,0.5,0.2,0.5,0.5v1.5
	C587.5,443.2,587.3,443.4,587,443.4z"/>
<path class="st5" d="M517.2,358.7h2.8c0.9,0,1.6,0.7,1.6,1.6v0c0,0.9-0.7,1.6-1.6,1.6h-2.8c-0.9,0-1.6-0.7-1.6-1.6v0
	C515.6,359.4,516.3,358.7,517.2,358.7z"/>
<path class="st5" d="M549.7,358.7h2.8c0.9,0,1.6,0.7,1.6,1.6v0c0,0.9-0.7,1.6-1.6,1.6h-2.8c-0.9,0-1.6-0.7-1.6-1.6v0
	C548.2,359.4,548.9,358.7,549.7,358.7z"/>
<path class="st5" d="M558.9,358.7h2.8c0.9,0,1.6,0.7,1.6,1.6v0c0,0.9-0.7,1.6-1.6,1.6h-2.8c-0.9,0-1.6-0.7-1.6-1.6v0
	C557.4,359.4,558.1,358.7,558.9,358.7z"/>
<path class="st5" d="M526,358.5h17.7c0.9,0,1.6,0.7,1.6,1.6v0c0,0.9-0.7,1.6-1.6,1.6H526c-0.9,0-1.6-0.7-1.6-1.6v0
	C524.5,359.2,525.2,358.5,526,358.5z"/>
<path class="st5" d="M569.4,358.5h17.7c0.9,0,1.6,0.7,1.6,1.6v0c0,0.9-0.7,1.6-1.6,1.6h-17.7c-0.9,0-1.6-0.7-1.6-1.6v0
	C567.8,359.2,568.5,358.5,569.4,358.5z"/>
<path class="st5" d="M525.9,365.8h2.8c0.9,0,1.6,0.7,1.6,1.6v0c0,0.9-0.7,1.6-1.6,1.6h-2.8c-0.9,0-1.6-0.7-1.6-1.6v0
	C524.3,366.5,525,365.8,525.9,365.8z"/>
<path class="st5" d="M558.4,365.8h2.8c0.9,0,1.6,0.7,1.6,1.6v0c0,0.9-0.7,1.6-1.6,1.6h-2.8c-0.9,0-1.6-0.7-1.6-1.6v0
	C556.8,366.5,557.5,365.8,558.4,365.8z"/>
<path class="st5" d="M567.6,365.8h2.8c0.9,0,1.6,0.7,1.6,1.6v0c0,0.9-0.7,1.6-1.6,1.6h-2.8c-0.9,0-1.6-0.7-1.6-1.6v0
	C566,366.5,566.7,365.8,567.6,365.8z"/>
<path class="st5" d="M534.7,365.5h17.7c0.9,0,1.6,0.7,1.6,1.6v0c0,0.9-0.7,1.6-1.6,1.6h-17.7c-0.9,0-1.6-0.7-1.6-1.6v0
	C533.2,366.2,533.8,365.5,534.7,365.5z"/>
<path class="st5" d="M578.1,365.5h17.7c0.9,0,1.6,0.7,1.6,1.6v0c0,0.9-0.7,1.6-1.6,1.6h-17.7c-0.9,0-1.6-0.7-1.6-1.6v0
	C576.5,366.2,577.2,365.5,578.1,365.5z"/>
<path class="st5" d="M534.5,372.8h2.8c0.9,0,1.6,0.7,1.6,1.6v0c0,0.9-0.7,1.6-1.6,1.6h-2.8c-0.9,0-1.6-0.7-1.6-1.6v0
	C533,373.5,533.7,372.8,534.5,372.8z"/>
<path class="st5" d="M567.1,372.8h2.8c0.9,0,1.6,0.7,1.6,1.6v0c0,0.9-0.7,1.6-1.6,1.6h-2.8c-0.9,0-1.6-0.7-1.6-1.6v0
	C565.5,373.5,566.2,372.8,567.1,372.8z"/>
<path class="st5" d="M576.3,372.8h2.8c0.9,0,1.6,0.7,1.6,1.6v0c0,0.9-0.7,1.6-1.6,1.6h-2.8c-0.9,0-1.6-0.7-1.6-1.6v0
	C574.7,373.5,575.4,372.8,576.3,372.8z"/>
<path class="st5" d="M543.4,372.6h17.7c0.9,0,1.6,0.7,1.6,1.6v0c0,0.9-0.7,1.6-1.6,1.6h-17.7c-0.9,0-1.6-0.7-1.6-1.6v0
	C541.8,373.3,542.5,372.6,543.4,372.6z"/>
<path class="st5" d="M586.7,372.6h17.7c0.9,0,1.6,0.7,1.6,1.6v0c0,0.9-0.7,1.6-1.6,1.6h-17.7c-0.9,0-1.6-0.7-1.6-1.6v0
	C585.2,373.3,585.9,372.6,586.7,372.6z"/>
<path class="st5" d="M543.2,379.9h2.8c0.9,0,1.6,0.7,1.6,1.6v0c0,0.9-0.7,1.6-1.6,1.6h-2.8c-0.9,0-1.6-0.7-1.6-1.6v0
	C541.6,380.6,542.3,379.9,543.2,379.9z"/>
<path class="st5" d="M575.7,379.9h2.8c0.9,0,1.6,0.7,1.6,1.6v0c0,0.9-0.7,1.6-1.6,1.6h-2.8c-0.9,0-1.6-0.7-1.6-1.6v0
	C574.2,380.6,574.9,379.9,575.7,379.9z"/>
<path class="st5" d="M584.9,379.9h2.8c0.9,0,1.6,0.7,1.6,1.6v0c0,0.9-0.7,1.6-1.6,1.6h-2.8c-0.9,0-1.6-0.7-1.6-1.6v0
	C583.4,380.6,584.1,379.9,584.9,379.9z"/>
<path class="st5" d="M552.1,379.6h17.7c0.9,0,1.6,0.7,1.6,1.6v0c0,0.9-0.7,1.6-1.6,1.6h-17.7c-0.9,0-1.6-0.7-1.6-1.6v0
	C550.5,380.3,551.2,379.6,552.1,379.6z"/>
<path class="st5" d="M549.7,407.9h2.8c0.9,0,1.6,0.7,1.6,1.6v0c0,0.9-0.7,1.6-1.6,1.6h-2.8c-0.9,0-1.6-0.7-1.6-1.6v0
	C548.2,408.6,548.9,407.9,549.7,407.9z"/>
<path class="st5" d="M558.9,407.9h2.8c0.9,0,1.6,0.7,1.6,1.6v0c0,0.9-0.7,1.6-1.6,1.6h-2.8c-0.9,0-1.6-0.7-1.6-1.6v0
	C557.4,408.6,558.1,407.9,558.9,407.9z"/>
<path class="st5" d="M569.4,408.2h17.7c0.9,0,1.6,0.7,1.6,1.6v0c0,0.9-0.7,1.6-1.6,1.6h-17.7c-0.9,0-1.6-0.7-1.6-1.6v0
	C567.8,408.9,568.5,408.2,569.4,408.2z"/>
<path class="st5" d="M517.2,407.9h2.8c0.9,0,1.6,0.7,1.6,1.6v0c0,0.9-0.7,1.6-1.6,1.6h-2.8c-0.9,0-1.6-0.7-1.6-1.6v0
	C515.6,408.6,516.3,407.9,517.2,407.9z"/>
<path class="st5" d="M526,408.2h17.7c0.9,0,1.6,0.7,1.6,1.6v0c0,0.9-0.7,1.6-1.6,1.6H526c-0.9,0-1.6-0.7-1.6-1.6v0
	C524.5,408.9,525.2,408.2,526,408.2z"/>
<path class="st5" d="M525.9,400.9h2.8c0.9,0,1.6,0.7,1.6,1.6v0c0,0.9-0.7,1.6-1.6,1.6h-2.8c-0.9,0-1.6-0.7-1.6-1.6v0
	C524.3,401.5,525,400.9,525.9,400.9z"/>
<path class="st5" d="M558.4,400.9h2.8c0.9,0,1.6,0.7,1.6,1.6v0c0,0.9-0.7,1.6-1.6,1.6h-2.8c-0.9,0-1.6-0.7-1.6-1.6v0
	C556.8,401.5,557.5,400.9,558.4,400.9z"/>
<path class="st5" d="M567.6,400.9h2.8c0.9,0,1.6,0.7,1.6,1.6v0c0,0.9-0.7,1.6-1.6,1.6h-2.8c-0.9,0-1.6-0.7-1.6-1.6v0
	C566,401.5,566.7,400.9,567.6,400.9z"/>
<path class="st5" d="M534.7,401.1h17.7c0.9,0,1.6,0.7,1.6,1.6v0c0,0.9-0.7,1.6-1.6,1.6h-17.7c-0.9,0-1.6-0.7-1.6-1.6v0
	C533.2,401.8,533.8,401.1,534.7,401.1z"/>
<path class="st5" d="M534.5,393.8h2.8c0.9,0,1.6,0.7,1.6,1.6v0c0,0.9-0.7,1.6-1.6,1.6h-2.8c-0.9,0-1.6-0.7-1.6-1.6v0
	C533,394.5,533.7,393.8,534.5,393.8z"/>
<path class="st5" d="M567.1,393.8h2.8c0.9,0,1.6,0.7,1.6,1.6v0c0,0.9-0.7,1.6-1.6,1.6h-2.8c-0.9,0-1.6-0.7-1.6-1.6v0
	C565.5,394.5,566.2,393.8,567.1,393.8z"/>
<path class="st5" d="M576.3,393.8h2.8c0.9,0,1.6,0.7,1.6,1.6v0c0,0.9-0.7,1.6-1.6,1.6h-2.8c-0.9,0-1.6-0.7-1.6-1.6v0
	C574.7,394.5,575.4,393.8,576.3,393.8z"/>
<path class="st5" d="M543.4,394.1h17.7c0.9,0,1.6,0.7,1.6,1.6v0c0,0.9-0.7,1.6-1.6,1.6h-17.7c-0.9,0-1.6-0.7-1.6-1.6v0
	C541.8,394.8,542.5,394.1,543.4,394.1z"/>
<path class="st5" d="M543.2,386.8h2.8c0.9,0,1.6,0.7,1.6,1.6v0c0,0.9-0.7,1.6-1.6,1.6h-2.8c-0.9,0-1.6-0.7-1.6-1.6v0
	C541.6,387.5,542.3,386.8,543.2,386.8z"/>
<path class="st5" d="M575.7,386.8h2.8c0.9,0,1.6,0.7,1.6,1.6v0c0,0.9-0.7,1.6-1.6,1.6h-2.8c-0.9,0-1.6-0.7-1.6-1.6v0
	C574.2,387.5,574.9,386.8,575.7,386.8z"/>
<path class="st5" d="M584.9,386.8h2.8c0.9,0,1.6,0.7,1.6,1.6v0c0,0.9-0.7,1.6-1.6,1.6h-2.8c-0.9,0-1.6-0.7-1.6-1.6v0
	C583.4,387.5,584.1,386.8,584.9,386.8z"/>
<path class="st5" d="M552.1,387h17.7c0.9,0,1.6,0.7,1.6,1.6v0c0,0.9-0.7,1.6-1.6,1.6h-17.7c-0.9,0-1.6-0.7-1.6-1.6v0
	C550.5,387.7,551.2,387,552.1,387z"/>
<path class="st6" d="M504.9,490.5l-13.3-21.1l41.9-33.4l17.3-19.2c7.1-7.9,19.2-8.5,27.1-1.4c2.5,2.2,4.3,5.1,5.4,8.2l0,0
	c3.2,9.8-1.9,20.4-11.6,24l-27.3,10.1L504.9,490.5z"/>
<path class="st4" d="M191.7,337.5V440h71.9V337.5c0-1.5-1-2.9-2.4-3.3c-0.3-0.1-0.7-0.2-1-0.2h-64.9
	C193.2,334,191.7,335.6,191.7,337.5C191.7,337.5,191.7,337.5,191.7,337.5z M219.7,372.7c0-4.2,3.5-7.6,7.7-7.6
	c4.2,0,7.6,3.4,7.6,7.6v11.9c0,4.2-3.5,7.7-7.7,7.6c-4.2,0-7.6-3.4-7.6-7.6V372.7z"/>
<path class="st2" d="M191.5,436.8v9.9c0,1.1,0.9,1.9,1.9,1.9h68.4c1.1,0,1.9-0.9,1.9-1.9v-9.9H191.5z"/>
<path class="st2" d="M78.7,183v187.3c0,5,4,9,9,9h277.5c5,0,9-4,9-9V183c0-5-4-9-9-9H87.7C82.7,174,78.7,178,78.7,183z"/>
<path class="st5" d="M85.2,185.3v182.6c0,2.7,2.2,4.8,4.8,4.8h272.9c2.7,0,4.8-2.2,4.8-4.8V185.3c0-2.7-2.2-4.8-4.8-4.8H90
	C87.3,180.5,85.2,182.6,85.2,185.3z"/>
<path class="st4" d="M135.8,447.9c0.6,0.7,1.4,1.1,2.3,1.1h162.3c1.6,0,3-1.3,3-3c0-0.2,0-0.4-0.1-0.6l-2.5-12
	c-0.2-1-0.9-1.8-1.9-2.2c-0.3-0.1-0.7-0.2-1.1-0.2H140.6c-0.4,0-0.7,0.1-1.1,0.2c-0.9,0.4-1.6,1.2-1.9,2.2l-2.5,12
	C135,446.3,135.2,447.2,135.8,447.9z"/>
<path class="st2" d="M354,205.6H98.7c-0.6,0-1-0.5-1-1c0-0.5,0.4-1,1-1H354c0.6,0,1,0.5,1,1C355,205.2,354.5,205.6,354,205.6z"/>
<ellipse class="st2" cx="116.1" cy="192.3" rx="6" ry="6.1"/>
<ellipse class="st2" cx="136.6" cy="192.3" rx="6" ry="6.1"/>
<ellipse class="st2" cx="157.2" cy="192.3" rx="6" ry="6.1"/>
<path class="st2" d="M341.6,187.8H327c-0.6,0-1.1,0.5-1.1,1.1c0,0.6,0.5,1.1,1.1,1.1h14.6c0.6,0,1.1-0.5,1.1-1.1
	C342.7,188.2,342.2,187.8,341.6,187.8z"/>
<path class="st2" d="M341.6,191.9H327c-0.6,0-1.1,0.5-1.1,1.1c0,0.6,0.5,1.1,1.1,1.1h14.6c0.6,0,1.1-0.5,1.1-1.1
	C342.7,192.4,342.2,191.9,341.6,191.9z"/>
<path class="st2" d="M341.6,196.1H327c-0.6,0-1.1,0.5-1.1,1.1c0,0.6,0.5,1.1,1.1,1.1h14.6c0.6,0,1.1-0.5,1.1-1.1
	C342.7,196.5,342.2,196.1,341.6,196.1z"/>
<path class="st4" d="M693.6,441.1c0.9,2.6,3.4,4.4,6.2,4.3l26.5-0.7c2.8-0.1,5.2-2,6-4.7L736,400c1.3,0.6,2.8,0.9,4.2,0.9
	c5.3-0.1,9.5-4.6,9.4-9.9s-4.6-9.5-9.9-9.4c-0.6,0-1.2,0.1-1.7,0.2c-1.3-1.4-3-2.1-4.9-2.1l-40.8,1.1c-0.3,0-0.7,0.1-1,0.1
	c-3.5,0.6-5.7,4-5.1,7.4c0.1,0.3,0.1,0.6,0.2,0.8L693.6,441.1z M736.8,397.3l2.7-9.6c0.3-1.1,0.3-2.3,0-3.4c0.1,0,0.2-0.1,0.4-0.1
	c3.8-0.1,7,3,7.1,6.8c0.1,3.8-2.9,7-6.7,7.1C739,398.1,737.8,397.9,736.8,397.3z"/>
<path class="st2" d="M691.4,380.8c0.9,5,10.6,8.5,22.4,7.8c10.8-0.5,19.6-4.3,21.2-8.8c-0.6-0.2-1.2-0.3-1.8-0.2l-40.8,1.1
	C692.1,380.7,691.7,380.7,691.4,380.8z"/>
<path class="st3" d="M715.9,419.1c0.1,0,0.1,0,0.2-0.1l5.8-3.8c0.2-0.2,0.3-0.5,0.1-0.7c0-0.1-0.1-0.1-0.1-0.1l-6-3.9
	c-0.2-0.2-0.5-0.1-0.7,0.1s-0.1,0.5,0.1,0.7l5.3,3.5l-5.1,3.3c-0.2,0.2-0.3,0.5-0.1,0.7C715.5,419,715.7,419.1,715.9,419.1
	L715.9,419.1z"/>
<path class="st3" d="M706.8,419.5c0.3-0.1,0.4-0.3,0.4-0.6c0-0.1-0.1-0.2-0.2-0.3l-5.3-3l5.1-3.8c0.2-0.2,0.3-0.5,0.1-0.7
	s-0.5-0.3-0.7-0.1l-5.7,4.3c-0.2,0.2-0.3,0.5-0.1,0.7c0,0.1,0.1,0.1,0.2,0.1l6,3.4C706.6,419.5,706.7,419.5,706.8,419.5z"/>
<path class="st3" d="M715.3,422.4c0,0,0.1,0,0.1-0.1c0.2-0.1,0.3-0.5,0.2-0.7c0,0,0,0,0,0l-8.2-13.4c-0.1-0.2-0.5-0.3-0.7-0.2
	s-0.3,0.5-0.2,0.7l8.2,13.4C714.9,422.3,715.1,422.4,715.3,422.4z"/>
<path class="st3" d="M212.6,260.8h44.2c1.8,0,3.3,1.5,3.3,3.3v4.3c0,1.8-1.5,3.3-3.3,3.3h-44.2c-1.8,0-3.3-1.5-3.3-3.3v-4.3
	C209.4,262.3,210.8,260.8,212.6,260.8z"/>
<path class="st7" d="M186.9,282.5h95.7c1.8,0,3.3,1.5,3.3,3.3v4.3c0,1.8-1.5,3.3-3.3,3.3h-95.7c-1.8,0-3.3-1.5-3.3-3.3v-4.3
	C183.6,284,185.1,282.5,186.9,282.5z"/>
<path class="st7" d="M186.9,304.2h95.7c1.8,0,3.3,1.5,3.3,3.3v4.3c0,1.8-1.5,3.3-3.3,3.3h-95.7c-1.8,0-3.3-1.5-3.3-3.3v-4.3
	C183.6,305.7,185.1,304.2,186.9,304.2z"/>
<path class="st2" d="M290.7,376.8l0.2,0.7l0,0l6.5,19.8l7.5,22.9l14.1,43l0.1,6.7v0l1,53.7l-2.9,7.3l3.3,11.9c0,0-1.5-18-9.6-7.7
	c-4.6,5.9-9.9,11.9-14.3,17.6c6.4,2.6,12.9,4.9,19.5,7c1.4,0.5,2.9,0.9,4.3,1.3c0.3,0.1,0.6,0.2,0.9,0.3
	c21.9,6.5,44.5,10.1,67.4,10.8c1.2,0,2.3,0.1,3.5,0.1c0.4,0,0.8,0,1.2,0c1.3,0,2.5,0,3.8,0c2.6,0,5.1,0,7.7-0.1
	c18.9-0.5,37.7-3.1,56.1-7.6c-0.1-7.6-0.5-16.4-1-25.9c-0.2-4.6-5.4-9.7-5.7-14.5c-0.2-3.7,4.4-7.1,4.1-10.8
	c-1.6-22.8-3.5-14.1-4.9-30.2c-0.1-1.6-0.3-3.1-0.4-4.6c-0.9-10.4-1.6-16.9-1.6-16.9l6.1-38.7l9.6-60.7l-0.7-1.2l-0.8-0.4
	l-50.8-25.2l-2.8-7.1c-1.6-4.2-5.7-6.9-10.1-6.9l-33.5-0.1c-3.5,0-6.8,1.7-8.9,4.5l-9.1,12.6L290.7,376.8z"/>
<path class="st2" d="M326.8,453.7l-7.6,16.2l-5.2,11.1l-8.9,46.6l-4.5,4.7l-3.8-16.8l-40,8.9c-1.3-7.3-0.4,0.2-1.2-7.8
	c0.2-0.2,0.5-0.5,0.7-0.7c0.6-0.6,1.2-1.2,1.2-1.7c-0.5-27.6,0.9-74.5,12.3-103c1.8-4.6,4.2-9,7-13.1c0.2-0.3,0.4-0.6,0.7-0.9
	c5.3-7.4,8.6-14.6,13.3-19.8v0c0,0,0.1-0.1,0.1-0.1c0,0,0,0,0,0l32.4-17.2l1.4,39.1l1,28.1L326.8,453.7z"/>
<path class="st2" d="M443.8,458.3l9.5,20.3l3.3,7.1l8.9,46.6l4.4,4.7l3.8-16.8l1.8-0.4l32.5-6.7l9.5,30c4.4-7.3,3-16.7-3.3-22.5
	c-0.6-0.6-1.2-1.2-1.2-1.7c0.5-32.4-1.4-91.7-19.4-116.1c-5.7-7.7-9.1-15.4-14.1-20.8c0,0,0,0,0,0l-12.1-19.8l-0.7-1.2l-0.8-0.4
	L443.8,458.3z"/>
<circle id="a657ec4b-47ce-4d2a-9c58-81a811696ca9" class="st6" cx="386.4" cy="267.2" r="44.6"/>
<path class="st4" d="M446.6,236.1c-0.7-0.7-1.7-1.2-2.7-1.2l0.7-1.9c0.7-1.8-0.2-3.9-2.1-4.5c-0.6-0.2-1.3-0.3-1.9-0.2l-2.4,0.5
	l0.2-1.6c0.3-1.9-1.1-3.7-3-4c-0.6-0.1-1.2,0-1.7,0.2c-1.1,0.4-2.3,0.3-3.2-0.2c-1-0.5-1.7-1.5-1.9-2.6l-0.8-4.1l-0.1-0.2
	c-4.1-6.9-12.1-11.9-21.8-13.8c-8.7-1.6-17.6-0.8-26.1,0c-3.4,0.3-7.2,0.7-10.4,2.6c-2.7,1.7-5,5-4.5,8.4c-8.5-2.6-17.5,2.6-22,9.1
	c-5.3,7.8-6.2,17.5-6.3,25.1c-0.4,18,3.3,32.7,11,43.7c0.6,0.8,0.7,2.5,1.8,3l-0.2-0.4c1.2,0.6,2.5,1.6,2,2.7
	c-1.3,3.1,7.6,9.9,13.9,12.1c11.5,4.1,26.9,3.8,37.6,2.3l0.4-2.5c3.9-0.5,6.6-1.5,7.4-3.1c1.4-1.2,2.5-2.2,3.5-3.2l0,0
	c0,0,0.1,0,0.1-0.1c4.9-4.7,6-7.3,6.5-11.4c0.5-4-0.4-8-1.3-11.6c18.7,2.9-7.4-20,10.1-24.4c0.2-0.1,0.4-0.1,0.6-0.1
	c0.5-0.1,1-0.2,1.5-0.4c2.4-0.6,4.6-1.6,6.7-2.9c4.9-3,6.5-6.9,9-11.4C447.8,238.8,447.6,237.2,446.6,236.1z"/>
<path class="st4" d="M544,461.4c0,1.8,0,4.2-0.1,7.2c0,0.4,0,0.8,0,1.3c-0.1,5.6-0.3,10.2-0.5,15.4c0,0.4,0,0.7,0,1.1
	c-0.3,7.2-0.7,15.7-1.5,29c-1.4,24.7-3.9,3.4-6.3,12c-0.1,0.4-0.2,0.9-0.4,1.5c-0.4,2.2-1,4.3-1.9,6.3c-1.3,0.8-2.7,1.5-4,2.3
	c-3.8,2.1-7.6,4.1-11.5,6.1c-2.2,1.1-4.4,2.1-6.6,3.2c-0.3,0.2-0.7,0.3-1,0.5c-11.3,5.2-22.9,9.6-34.8,13.3c-2.3,0.7-4.6,1.4-7,2
	c-2.4,0.7-4.9,1.3-7.3,1.9c-18.4,4.5-37.2,7.1-56.1,7.6c-2.5,0.1-5.1,0.1-7.7,0.1c-1.3,0-2.5,0-3.8,0c-0.4,0-0.8,0-1.2,0
	c-1.1,0-2.3,0-3.5-0.1c-22.8-0.7-45.5-4.4-67.3-10.8l-0.9-0.3c-1.4-0.4-2.9-0.9-4.3-1.3c-6.6-2.1-13.1-4.4-19.5-7
	c-4.9-2-9.7-4.1-14.5-6.3c0,0-0.1,0-0.1-0.1c-1-0.5-2-0.9-3-1.4c-0.1-0.1-0.3-0.1-0.4-0.2c-3.7-1.8-7.4-3.7-11.1-5.7
	c-3.1-7.1-7.4-8.4-10.1-14.6c-0.8-1.8-1.3-3.8-1.7-5.7c0,0,0,0,0-0.1c0.3,3.7-1.2-6.6,0,0c0-0.1,0-0.2,0-0.4c0-0.4-0.1-0.8-0.1-1.3
	c-3.4-33.5-3.2-71.8-4.7-103.4c-0.1-2-0.2-4-0.3-5.9c0-0.6-0.1-1.2-0.1-1.8c0.1-0.2,0.1-0.4,0.2-0.5c0-0.1,0-0.1,0.1-0.2
	c0-0.1,0.1-0.1,0.1-0.2c0,0,0-0.1,0.1-0.1c0,0,0-0.1,0-0.1c0.1-0.1,0.2-0.3,0.3-0.4c0-0.1,0.1-0.1,0.1-0.2c0-0.1,0.1-0.1,0.1-0.1
	c0,0,0.1-0.1,0.1-0.1c0,0,0.1-0.1,0.1-0.1c0,0,0-0.1,0.1-0.1c0.1-0.1,0.2-0.2,0.3-0.2c0.4-0.3,0.7-0.6,1.1-0.9
	c0.1-0.1,0.3-0.2,0.4-0.3c1-0.6,2.1-1.1,3.2-1.5c0.4-0.1,0.8-0.3,1.2-0.4c0.1,0,0.3-0.1,0.4-0.1c0.2-0.1,0.4-0.1,0.7-0.2
	c1.1-0.3,2.4-0.6,3.7-0.9c0.2,0,0.3-0.1,0.5-0.1c0.2,0,0.5-0.1,0.7-0.1c0.3-0.1,0.7-0.1,1-0.2c3-0.5,6.3-0.8,10.1-1
	c0.4,0,0.7,0,1-0.1c0.4,0,0.8,0,1.2-0.1c0.4,0,0.7,0,1.1,0c0.4,0,0.7,0,1.1,0c1,0,2-0.1,3.1-0.1c3-0.1,6.2,0,9.5,0
	c1.5,0,3.1,0.1,4.8,0.2c0.1,0,0.2,0,0.3,0c1.4,0,2.8,0.1,4.3,0.2c1,0,2,0.1,3.1,0.2c1,0.1,1.9,0.1,2.9,0.2c0.8,0,1.5,0.1,2.3,0.2
	c0.7,0,1.3,0.1,2,0.1l0.9,0.1c0.5,0,1,0.1,1.5,0.1c1.1,0.1,2.2,0.2,3.3,0.3c1.1,0.1,2.2,0.2,3.4,0.3s2.3,0.2,3.4,0.3
	c0.1,0,0.2,0,0.3,0c1,0.1,2.1,0.2,3.1,0.3c0.2,0,0.5,0,0.7,0.1c1,0.1,2,0.2,3,0.3c0.3,0,0.6,0.1,0.9,0.1c0.8,0.1,1.6,0.2,2.4,0.3
	c1,0.1,2.1,0.2,3.2,0.4c0.8,0.1,1.6,0.2,2.4,0.3c1.3,0.2,2.6,0.3,3.8,0.5c0.5,0.1,1,0.1,1.5,0.2c3.7,0.5,7.4,1,11.2,1.5
	c5.7,0.8,11.5,1.7,17.4,2.6c5.9,1,11.8,2,17.7,3c1.5,0.3,3,0.5,4.5,0.8c0.7,0.1,1.4,0.3,2,0.4c1.2,0.2,2.3,0.4,3.5,0.7
	c1.2,0.2,2.3,0.4,3.5,0.7c1.4,0.3,2.8,0.5,4.2,0.8c9.1,1.8,18.1,3.7,27,5.7c1.5,0.3,2.9,0.7,4.3,1c2.9,0.7,5.7,1.3,8.6,2
	c0.8,0.2,1.5,0.4,2.3,0.6c1.9,0.5,3.8,1,5.7,1.5l0.3,0.1c1.4,0.3,2.8,0.7,4.1,1c3.2,0.8,6.4,1.7,9.5,2.5c2.1,0.6,4.1,1.1,6.1,1.7
	c3,0.9,6,1.8,8.8,2.6c0.7,0.2,1.4,0.4,2.1,0.7c2.1,0.7,4.2,1.3,6.2,2c1.6,0.5,3.2,1,4.7,1.6c1.5,0.5,3,1.1,4.5,1.6
	c1,0.3,1.9,0.7,2.8,1c1.3,0.5,2.7,1,4,1.5c0.4,0.2,0.8,0.3,1.2,0.5c0.2,0.1,0.5,0.2,0.7,0.3c0.5,0.2,1,0.4,1.4,0.6
	c0.5,0.2,0.9,0.4,1.4,0.6c0.5,0.2,0.9,0.4,1.3,0.6c0.5,0.2,0.9,0.4,1.3,0.6c0.4,0.2,0.7,0.3,1.1,0.5c0.7,0.3,1.4,0.6,2.1,0.9
	c0.3,0.2,0.7,0.3,1,0.5l0.8,0.4c0.1,0.1,0.2,0.1,0.3,0.2c0.2,0.1,0.5,0.2,0.8,0.4c0.6,0.3,1.2,0.6,1.7,0.8c0.8,0.4,1.5,0.8,2.2,1.1
	c0.7,0.4,1.4,0.8,2.1,1.1c0.1,0.1,0.2,0.1,0.3,0.2c0.2,0.1,0.3,0.2,0.5,0.2c0.5,0.3,1,0.6,1.5,0.9c1,0.6,1.9,1.2,2.7,1.8
	c0.2,0.1,0.4,0.3,0.6,0.4c0.6,0.5,1.2,0.9,1.8,1.3c0,0,0,0,0,0c0.2,0.1,0.4,0.3,0.5,0.4c0.2,0.1,0.3,0.3,0.5,0.4
	c0.5,0.5,1,0.9,1.4,1.3c0.1,0.1,0.3,0.3,0.4,0.4c0.1,0,0.1,0.1,0.2,0.2c0.2,0.2,0.4,0.4,0.5,0.6c0,0,0,0.1,0.1,0.1
	c0.2,0.3,0.5,0.6,0.7,0.8c0.1,0.1,0.2,0.3,0.3,0.4c0.1,0.2,0.2,0.3,0.3,0.5c0.1,0.1,0.2,0.3,0.2,0.4c0.2,0.4,0.4,0.7,0.5,1.1
	c0.1,0.3,0.2,0.5,0.3,0.8C543.9,460.9,544,461.2,544,461.4z"/>
<path class="st8" d="M544,461.4c0,1.8,0,4.2-0.1,7.2c0,0.4,0,0.8,0,1.3c-0.1,4.2-0.2,9.5-0.5,15.4c0,0.4,0,0.7,0,1.1
	c-0.3,7.2-0.7,15.7-1.5,29c-1.4,24.7-3.9,3.4-6.3,12c-6.9-4.2-14.4-8.6-22.4-13.2c-1.4-0.8-2.9-1.6-4.4-2.5
	c-16.1-9-34-18.4-52.8-27.7c-0.7-0.4-1.5-0.7-2.2-1.1c-43-21.2-89.8-41.9-127.8-55.7c-7.3-2.7-14.3-5.1-20.9-7.2
	c-13.9-4.4-25.8-7.5-35.1-8.9c-9.6-1.4-16.2-0.9-18.9,2c-0.1-2-0.2-4-0.3-5.9c0-0.6-0.1-1.2-0.1-1.8c0.1-0.2,0.1-0.3,0.2-0.5
	c0,0,0,0,0-0.1c0-0.1,0-0.1,0.1-0.2c0-0.1,0.1-0.1,0.1-0.2c0-0.1,0.1-0.1,0.1-0.2c0.1-0.1,0.2-0.3,0.3-0.4c0.1-0.1,0.2-0.2,0.3-0.3
	c0,0,0.1-0.1,0.1-0.1c0,0,0.1-0.1,0.1-0.1c0,0,0-0.1,0.1-0.1c0.1-0.1,0.2-0.2,0.3-0.2c0.4-0.3,0.7-0.6,1.1-0.9
	c0.1-0.1,0.3-0.2,0.4-0.3c1-0.6,2.1-1.1,3.2-1.5c0.4-0.1,0.8-0.3,1.2-0.4c0.1,0,0.3-0.1,0.4-0.1c0.2-0.1,0.4-0.1,0.7-0.2
	c1.1-0.3,2.4-0.6,3.7-0.9c0.4-0.1,0.8-0.2,1.2-0.2c0.3-0.1,0.7-0.1,1-0.2c3-0.5,6.3-0.8,10.1-1c0.4,0,0.7,0,1-0.1
	c0.4,0,0.8,0,1.2-0.1c0.4,0,0.7,0,1.1,0c0.4,0,0.7,0,1.1,0c1,0,2-0.1,3.1-0.1c3,0,6.2,0,9.5,0c1.5,0,3.1,0.1,4.8,0.2
	c0.1,0,0.2,0,0.3,0c1.4,0,2.8,0.1,4.3,0.2c1,0,2,0.1,3.1,0.2c1,0.1,1.9,0.1,2.9,0.2c0.8,0,1.5,0.1,2.3,0.2c0.7,0,1.3,0.1,2,0.1
	c0.8,0.1,1.6,0.1,2.4,0.2c1.1,0.1,2.2,0.2,3.3,0.3c1.1,0.1,2.2,0.2,3.4,0.3s2.3,0.2,3.4,0.3c0.1,0,0.2,0,0.3,0
	c1,0.1,2.1,0.2,3.1,0.3c5.8,0.6,11.8,1.3,18,2.1c3.7,0.5,7.4,1,11.2,1.5c5.7,0.8,11.5,1.7,17.4,2.6c5.9,1,11.8,2,17.7,3
	c1.5,0.3,3,0.5,4.5,0.8c1.8,0.3,3.7,0.7,5.5,1c1.2,0.2,2.3,0.4,3.5,0.7c1.4,0.3,2.8,0.5,4.2,0.8c9.1,1.8,18.1,3.7,27,5.7
	c1.5,0.3,2.9,0.7,4.3,1c2.9,0.7,5.7,1.3,8.6,2c0.8,0.2,1.5,0.4,2.3,0.6c1.9,0.5,3.8,1,5.7,1.4v0c0.1,0,0.2,0,0.3,0.1
	c1.4,0.3,2.8,0.7,4.1,1.1c3.2,0.8,6.4,1.7,9.5,2.5c2.1,0.6,4.1,1.2,6.1,1.7c3,0.9,6,1.8,8.8,2.6c0.7,0.2,1.4,0.4,2.1,0.7
	c2.1,0.7,4.2,1.3,6.2,2c1.6,0.5,3.2,1,4.7,1.6c1.5,0.5,3,1.1,4.5,1.6c1,0.3,1.9,0.7,2.8,1c1.4,0.5,2.7,1,4,1.5
	c0.4,0.2,0.8,0.3,1.2,0.5c0.7,0.3,1.4,0.6,2.1,0.9c0.5,0.2,0.9,0.4,1.4,0.6c0.5,0.2,0.9,0.4,1.3,0.6c0.5,0.2,0.9,0.4,1.3,0.6
	c0.4,0.2,0.7,0.3,1.1,0.5c0.7,0.3,1.4,0.6,2.1,0.9c0.3,0.2,0.7,0.3,1,0.5l0.8,0.4c0.1,0.1,0.2,0.1,0.3,0.2c0.8,0.4,1.7,0.8,2.5,1.2
	c0.8,0.4,1.5,0.8,2.2,1.1c0.8,0.4,1.6,0.9,2.4,1.3c0.2,0.1,0.3,0.2,0.5,0.2c0.5,0.3,1,0.6,1.5,0.9c1,0.6,1.9,1.2,2.7,1.8
	c0.8,0.6,1.6,1.2,2.3,1.7c0,0,0,0,0,0c0.3,0.3,0.7,0.6,1,0.8c0.5,0.5,1,0.9,1.4,1.3c0.1,0.1,0.3,0.3,0.4,0.4c0.1,0,0.1,0.1,0.2,0.2
	c0.2,0.2,0.4,0.5,0.6,0.7c0.2,0.3,0.5,0.6,0.7,0.8c0.1,0.1,0.2,0.3,0.3,0.4c0.1,0.2,0.2,0.3,0.3,0.5c0.1,0.1,0.2,0.3,0.2,0.4
	c0.2,0.4,0.4,0.7,0.5,1.1c0.1,0.3,0.2,0.5,0.3,0.8C543.9,460.9,544,461.2,544,461.4z"/>
</svg>
